<?xml version="1.0" encoding="utf-8"?>
<!-- Generator: Adobe Illustrator 22.0.1, SVG Export Plug-In . SVG Version: 6.00 Build 0)  -->
<svg version="1.1" id="Layer_1" xmlns="http://www.w3.org/2000/svg" xmlns:xlink="http://www.w3.org/1999/xlink" x="0px" y="0px"
	 viewBox="0 0 266.3 181.9" style="enable-background:new 0 0 266.3 181.9;" xml:space="preserve">
<style type="text/css">
	.st0{display:none;}
	.st1{display:inline;}
	.st2{fill:#E163E5;}
	.st3{fill:#CA589A;}
	.st4{display:inline;fill:#E163E5;}
</style>
<g class="st0">
	<g class="st1">
		<path class="st2" d="M147,108.7c-2.1,23.1-4.1,46.3-2.9,69.4c1.9-11.5,3.8-23,5.7-34.6c1.1-6.7,0.8-13.4,0.8-20.1
			c0-11-3.3-10-2.7-12.7"/>
	</g>
	<g class="st1">
		<path class="st2" d="M124.6,169.3c-0.5-13.8-0.9-27.6-1.4-41.4c-0.3-8-0.5-13.8-2.6-22.4c-2.8,8.3-2.9,16.1-3.1,25.8
			c-0.2,9.5,1.7,19.4,3.7,28.5c1.2,5.5,2.6,11.1,4,16.5c0.7-4.9,0.1-10-1.6-14.6"/>
	</g>
	<g class="st1">
		<g>
			<path class="st2" d="M164.3,2.5c2.6,1.8-5.4,5.7-6.1,6c-5.7,3.2-11.6,6.3-17.7,8.6c0.3,9.7-0.8,19.4-1,29
				c-0.2,9.8-0.4,20-0.5,29.8c0,3.4-0.1,7.1-0.2,10.4c-0.6,22.3,1.7,47.3-0.6,69c-0.2,2.3-2.4-5.6-2.6-3.4c-0.2,3.1-1.6-12-1-9
				c0.5,2.3,1.2-2.5,1,0c-0.1,1.6,1.5-5,0-5s-2.2,42.3-2.6,40.8c-1.7-6.6,1.8-27.1,1.6-33.8c-0.9-36.4-2.7-59.4-5-95.8
				c-0.6-9.3-1-18.7-1.6-28c-4.6,1.6-9.2,3.3-13.8,4.9c-0.4,0.2-0.7,0.2-1.1,0s-0.5-0.8-0.6-1.5c-0.1-2.8,0.9-6,2.7-8.1
				c1.7-1.9,4.2-3.1,6.6-4c5-2.2,10.2-3.9,15.3-5.2c4.7-1.2,9.6-1.9,14.4-3.1c2.4-0.4,5-1.6,7.4-2c1.1-0.1,3.9-0.4,5,0.2
				C164.3,2.5,164.3,2.5,164.3,2.5z"/>
			<path class="st2" d="M265,59.2c-0.4,10.3-2.5,20.5-7.2,29.9c-5.2,10.6-9.9,21.7-16,32.3c-0.6,1-1.3,1.9-2.4,2.5
				c-1,0.5-2.6,0.6-3.1-0.3c-0.2-0.4,0-1,0-1.5c3.6-14.3,9.3-27.5,13.6-41.6c0.7-2.6,4.8-17.5,0.6-18.9c-0.9-0.2-2,0-2.9,0.5
				c-6.3,2.6-10.3,9.6-17.7,8.9c-0.7,0-1.3-0.1-1.7-0.5c-4.2-2.5-1.7-10.1-0.7-13.5c1.6-5.6,5.3-9.3,7.7-13.1
				c0.9-1.4,1.7-2.8,2.6-4.2c2.9-4.7,7.5-8.6,13.8-11.7c1.1-0.5,2.2-1,3.5-1.1s2.8,0.2,3.7,1.3c0.7,0.6,0.9,1.6,0.9,2.3
				c0.7,4.2,0.8,7.4,0.2,10.5c-0.3,1.6-0.6,6.6-4.4,7.1c-0.2,0-0.4,0-0.6-0.1c-0.2,0-0.2-0.2-0.4-0.4c-0.2-0.6-0.6-1.3-0.7-1.8
				c-0.6-1.5-0.6-3.1-0.6-4.4c0-0.6-0.2-1.5-1.1-1.7c-2.8,3.6-5.9,7.1-9.4,11.3c-2.5,2.9-1.6,4,2.4,2.6c3.5-1.1,7-1.9,10.5-2.6
				c1.5-0.2,3-0.5,4.4-0.2c2,0.3,3.5,1.7,4.2,3.1C265,55.4,265,57.4,265,59.2z"/>
			<path class="st2" d="M187.4,34c-0.3-9.5-2.9-23.5-14.7-24.7c-0.6,0-1.1,0-1.7,0c-5.5-1.8-12.1-0.1-16.4,3.4
				c-3.1,2.5-4.6,7-5.3,11.3c-0.9,5.4-1.5,11-1.4,16.4c0,5.4,0.9,10.9,1,16.3c0,6,0,11.9,0.2,17.5c0.4,10.9,1.6,22.4,3.9,33
				c0.4,2.1,1,4.2,2,6.1c0,1.5-0.6,3.7-0.4,4.7c0.1,0.9,0.3,1.9,0.6,2.7c0.5,1.3,1.7,2.2,3.1,2.1c0.3,0,0.6-0.2,0.9-0.2
				c0.6-0.1,1.1-0.5,1.6-0.8c0.6-0.5,1.2-1,1.9-1.5c0.1-0.1,0.3-0.2,0.4-0.3c0.6,0.1,1.3,0.1,2,0.1c0.3,0.2,0.6,0.4,0.8,0.7
				c0.6,0.8,0.7,1.8,0.9,2.7c0.2,1.1,0.1,2.2,0.2,3.2c0.1,1.3-0.1,2.5,0.2,3.8c0.1,0.7,0.1,1.4,0.1,2.1c0,1,0,1.9,0,2.9
				c0,0.1,0,0.2,0,0.2c0.2,0.5,0.2,1,0,1.5c0,0.1,0,0.3,0,0.4c0,0.3,0,0.5,0,0.8c-0.1,1.4,0,2.9-0.4,4.3c0,0.1,0,0.3,0,0.4
				c-0.1,1.2-0.3,2.4-0.4,3.7c0,0.1,0,0.2,0,0.2c-0.1,0.5-0.2,1.1-0.2,1.6c0,1,0,1.9,0,2.9c0,0.9,0.4,1.5,1,2c0.5,0.4,1,0.7,1.6,0.6
				c0.5-0.1,1-0.3,1.4-0.6c0.5-0.5,0.8-1.1,1-1.8c0.2-0.8,0.3-1.6,0.2-2.5c-0.2-1.4-0.5-2.7-0.5-4.1c0-0.1,0-0.2,0-0.2
				c-0.1-1-0.2-1.9-0.3-2.9c-0.1-0.7-0.1-1.4-0.1-2c0-0.8-0.1-1.5-0.1-2.3c0-0.5,0-1-0.1-1.5c0-0.1,0-0.2,0-0.4
				c0.2-0.7,0.2-1.4,0.1-2.1c0-0.3-0.1-0.6,0-0.8c0.2-0.4,0.1-0.9,0.2-1.3c0-0.6,0.1-1.2,0-1.8c0-0.2,0-0.4,0.1-0.5
				c0-0.1,0-0.3,0-0.4c0-0.5,0-1,0-1.6c0.1-1.2,0.1-2.3,0.2-3.5c0.1-0.9,0.2-1.8,0.4-2.7V121c0.2-0.7,0.3-1.4,0.5-2.1
				c0.1-0.6,0.2-1.2,0.4-1.7c0.2-0.6,0.4-1.2,0.7-1.8c0.6-0.7,1.1-1.5,1.5-2.4l0.1-0.1l0,0c0.8-1.5,1.4-3.1,1.8-4.6
				c1.3-4.7,2.6-9.6,3.9-14.3C185,74.1,188,54.4,187.4,34z M164.2,30.5c0.4-1.6,0.7-3.3,1.3-4.9c0.2-0.7,0.6-1.5,1.1-2
				c1.1-1.3,3.5-0.5,4.6,1c0.9,1.7,1.1,3.7,1.3,5.5c0.7,13.8,0.2,27.6-1.3,41.3c-0.7,7-2.6,13.9-3.1,20.7c-0.2,2.4,1.5,13-2.4,13
				c-1.5,0-2.3-1.9-2.6-3.3C157.8,78.2,158.9,54.8,164.2,30.5z"/>
			<path class="st2" d="M119.6,13.9c-0.2-0.6-0.6-1-0.7-1.3c-6.2-8.9-17.7-5.2-25.6-1.7c-6.8,3-16.6,7-23.1,12.2
				c-0.4,0.2-0.8,0.7-0.9,1c-0.2,0.7,0.5,1.3,1.1,1.3c1.2,0.3,14.6-2.2,14.8-2.9c-0.4,3.3-1.6,6.6-1.7,9.8c-0.1,4.4-0.4,9-1.1,13.3
				c-0.9,8.8-1.1,17.2-1.1,26.2c0,4.8,0,9.3,0.2,14c0.2,4.9,0.9,9.6,0.7,14.3c0,4.7,0,9.3,0,13.8c-0.2,2.6-0.2,4.9-0.2,7.5
				c0.2,1.5,0.7,11.6,4,10.1c0.9-0.5,1.1-1.8,1.3-2.9c3-18.2,5.2-36.8,5.7-55.3c4-5.7,6.5-12.1,10.5-17.8c2-2.8,4-5.7,6-8.7
				c0.3,1,0.5,2,0.7,3c0.1,0.7,0.2,1.5,0.3,2.2c0.1,1.2,0.2,2.4,0.4,3.6c0.1,1,0.2,2,0.3,3c0.1,4.2,0.2,8.3,0.2,12.4
				c0,4.3,0.3,8.6-0.5,12.8c-0.2,1.4-0.4,2.8-0.6,4.1c-0.2,1,0.1,1.8,0.8,2.4c0.5,0.5,1.2,0.8,1.9,0.5c0.2-0.1,0.4-0.1,0.6-0.2
				c0.5-0.2,0.9-0.6,1-1.2c0.1-0.5,0.1-0.9,0.1-1.4c0-1.3-0.2-2.5-0.4-3.8c-0.3-1.6-0.6-3.2-0.5-4.9c0.1-0.8,0-1.7,0-2.5
				c0-7.3,0-14.7,0-22.4c0-1.9,0.3-3.9,0.4-5.8c0-0.1,0-0.2,0-0.2c0.2-1.4,0.4-2.7,0.6-4.1c0.2-1.5,0.3-3,0.4-4.5
				c0.1-0.8,0.2-1.5,0.4-2.3c1.5-2.5,3.2-5.1,4.3-7.8c0.5-1.5,1.1-3.1,1.5-4.6C122.1,21.3,121.3,17.3,119.6,13.9z M99.9,41.3
				c-1.8,3.6-5.1,6.2-6,10.3c0.5-5.6,0.9-11.4,0.5-16.9c0-1.3-1.7-15.3-2.2-15c2.4-0.8,4.7-1.5,6.9-2.2c2.2-0.6,4.6-1.2,6.4,0.3
				c1.3,1.1,1.8,3,2,4.8c0.3,3-0.5,6.3-2.2,8.8c-0.2,0.2-0.2,0.6-0.4,0.8c-0.9,1.2-2,2.4-2.9,3.9C101.2,37.7,100.6,39.6,99.9,41.3z"
				/>
			<path class="st2" d="M248.3,110.8c-4.6-5.3-9.4-9.8-13.4-14.8c-2.4-2.6-4.6-5.2-6.6-8.2c-2-2.6-4.2-5.4-6.3-8.3
				c-3.1-4.5-6.1-9.5-9-14.8c-0.6-1.1-1.1-2-1.8-2.8c1.5-2.6,2.8-4.8,4.4-6.8c3.9-4.7,7.9-8.9,11.6-12.7c1.7-1.7,3.5-3.4,4.8-5.1
				c0.6-0.9,1.1-1.9,1.5-2.8c0.9-2.4,0.2-5.5-1.5-8.4c-0.2-0.5-0.6-0.9-0.7-1.2c-5.9-8.5-16.4-10-25.8-9.8c-7,0.1-14.4,0.5-20.6,4.1
				c-0.4,0.1-0.7,0.3-0.9,0.8s0.4,1.5,0.9,1.7c1.1,0.5,12.9,2.1,13.1,1.4c-0.4,3-1.5,5.8-1.7,8.8c-0.2,4.2-0.6,8.3-1.3,12.6
				c-1.1,8.3-1.7,17.4-1.7,26.3c0,4.6,0.1,9.3,0.2,13.8c0.2,9.6,0.5,20.7,3.1,30.1c0.2,0.7,0.4,1.4,0.9,2c0.6,0.5,1.3,0.7,2,0.4
				c0.7-0.5,1.1-1.5,1.3-2.2c1.8-5.5,2.4-10.8,2.4-16.1c0.2-4.6,0.9-8.9,1.1-13.5c0.2-2.2,0.4-4.4,0.4-6.7c1.2,1.5,2.3,2.8,3.4,4.2
				c0.6,1.7,1,3.5,1,5.2c0,2.5,1.8,2.7,3.7,2.2c0.6,0.9,1.1,1.9,1.8,2.8c5.8,7.7,15.2,13,22.4,18.6c4.4,3.4,9.2,9.3,14.5,10.9
				C261.4,125.4,249.9,112.6,248.3,110.8z M204.3,22.7c2.4,0,4.8,0.2,7,0.3c2.2,0.2,4.6,0.4,6.4,2.2c1.3,1.2,1.8,2.9,2,4.4
				c0.3,2.4-0.6,4.7-2.2,6.3c-0.2,0.1-0.2,0.4-0.4,0.5c-0.9,0.7-2,1.5-2.9,2.4c-0.9,1.2-1.5,2.7-2.2,3.9c-1.8,2.8-5.2,4.8-6.1,8.5
				c0.6-5.2,0.9-10,0.6-15C206.5,35.2,204.9,22.7,204.3,22.7z"/>
			<path class="st2" d="M134.5,181.5c1.1-9.9,2.2-19.8,3.3-29.8c0.1-0.6,0.4-1,0.9-1.3c1.5-20.5-0.4-43.4,0.1-64.1
				c0.1-3.4,0.1-7,0.2-10.4c0.1-9.8,0.4-19.9,0.5-29.8l-9.8,3.1c2.4,36.4,0.2,73.1,1.2,109.4c0,1,0.1,2,0.1,3c0.7,0,1.4,0.5,1.4,1.4
				c-0.3,4.2-0.2,8.4,0.1,12.7c0.2,1,0.4,2.1,0.7,3.1C133.3,179.8,133.8,180.9,134.5,181.5z"/>
			<g>
				<path class="st2" d="M85.9,153.8c-1.1-1.1-2-2.2-2.9-3.5c-0.9-1.5-6.7-10.1-7.6-11.4c-0.7-1.3-1.8-2.7-2.9-4.1
					c-10.6-13.9-17-31.1-26.1-46.1c-1.8-2.9-3.9-5.9-6.1-8.8c-1.8-2.4-2.7-5-4.1-7.7C34,67.9,31.6,63.5,31,59
					c1.2-1.9,2.5-3.7,3.4-5.5c3-3.6,6-7.2,8.7-11c1.4-2.1,3.1-4.3,4.1-6.6c0.2-0.5,0.3-0.9,0.5-1.4c3.1-4.2,8.4-11.3,6.3-16.2
					c-0.2-0.8-0.6-1.3-1.2-1.7c-4.4-3.5-14.2,0.9-19,2.6c-7.3,2.6-14.3,5.6-21.4,8.5c-0.7,0.3-1.5,0.7-2.2,1.2c-2.7,1-5.4,2.1-8,3.4
					c-0.4,0.1-0.7,0.3-0.9,0.6c-0.2,0.4,0.4,1,0.9,1.1c0.6,0.1,4.9,0.1,8.2-0.2c0.4,1.2,0.3,2.5,0.2,3.7C10.1,43,9.8,48.1,9.9,54.8
					c0.1,12.9-4,27.5,1.7,40c0.4,3.7,1.1,7.6,2.4,12c0.2,0.7,0.4,1.3,0.9,2c0.6,0.5,1.3,1,2,0.9c0.7-0.3,1.1-1,1.3-1.7
					c1.8-4.6,2.4-9,2.4-13.5c0.2-3.9,0.9-7.4,1.1-11.3c0.2-1.9,0.4-3.8,0.4-5.8c0.2-0.5,0.3-0.7,0.6-1.2c0.9,1,1.8,1.9,2.6,2.7
					c1.8,1.7,3.2,3.5,4.7,5.5c1.4,1.8,2.9,4,4.3,5.9c7,9.2,13.8,18.6,20.4,28c1.3,1.8,2.5,3.5,3.8,5.1c1.8,2.6,3.8,5.1,5.5,7.5
					c1.6,2.1,3.9,5,6.3,8.1c0.3,2.4,0.7,4.8,1,7.2c0.4,3.2,0.6,6.1,1.7,9c0.9,2.1,4.4,3.2,5.5,0.6c0.6-1.5,1.1-3,1.4-4.7
					c1.4,1.7,2.7,3.3,3.7,4.5c0.4,0.5,0.9,0.9,1.4,1.3c0.7,0.2,1.4,0.2,1.8-0.3C87.5,155.7,86.6,154.7,85.9,153.8z M23.4,34
					c0.1-0.6,0.1-1.4,0.8-2c0.5-0.4,1.1-0.8,1.8-1c3.1-1.3,6.2-2.7,9.1-4.2c3.5-1.8,7.9-1.9,6.9,2.5c-0.5,1.8-2,3.4-3.1,4.8
					c-0.9,1.1-1.7,2.1-2.5,3.2c-1.6,2.2-3.1,4.4-4.9,6.3c-2.1,2.4-8,7.6-8,7.6C23.5,51.4,23,40,23.4,34z"/>
				<path class="st2" d="M81.9,56.7c-2,0.7-3.9,1.7-6.1,2c-0.7,0.2-1.5,0.2-2,0.2c0-2.6-0.7-5.4-1-7.9c-0.7-5.6-1.8-10.8-2.6-16.2
					c-0.4-2.6-0.8-5.2-1.3-7.9c-0.6-2.9-0.8-7.3-4-8.8c-1.4-0.7-3.6-0.5-4.6,0.7c-0.5,0.5-0.9,1.2-1.2,1.8c-1,1.9-1.8,3.8-2.8,5.6
					c-0.5,0.9-1,1.8-1.1,2.6c-0.3,1-0.4,1.9-0.5,2.9c-0.3,3.2-1.1,6.5-1.9,9.7c-0.7,2.6-0.8,5.2-1,7.8c-0.8,1.6-1.2,3.1-1.6,4.7
					c-0.9,3.4-0.7,6.8-1.3,10.8c-0.5,3.2-0.2,6.5-2.8,8.8c-0.9,1-2.4,1.7-3.5,2.3c-4,2.2-7.4,5-10.7,7.5c-1.1,0.9-2.4,1.8-2.6,3
					c0.9,0.5,1.8-0.3,2.8-0.7c2-1.4,4.6-1.5,7-2.1c2.7-0.6,5.2-1.8,7.5-3c0-0.2,0.2-0.2,0.2-0.2c-0.2,2.8-0.2,5.6-0.4,8.1
					c-0.6,7.4-2.8,14.6-4.4,22c-0.4,1.6,2,2.4,2.6,0.9c2.7-6.9,4.8-13.9,7.7-20.7c1.3-3.5,2.9-6.9,4-10.6c0.6-1.3,0.9-2.7,1.1-4.1
					c0.4-0.2,0.6-0.2,0.7-0.2c0.9-0.2,1.7-0.4,2.5-0.8c0.1,0.2,0.1,0.3,0.1,0.5c0.1,1-0.2,1.9-0.3,2.8v0.1c-0.1,0.6-0.2,1.2-0.3,1.8
					c0,0.1,0,0.3,0,0.5c0.1,0.5,0.2,0.9,0.8,1.2c0.7,0.4,1.6-0.1,1.7-0.8c0.1-1,0.1-2-0.2-3c-0.1-0.5-0.2-0.9-0.3-1.4
					c0-0.8-0.1-1.5,0-2.3c0.8-0.4,1.5-0.7,2.4-1.1c0.6-0.2,1.1-0.5,1.7-0.7c0.6,4.3,1.3,8.6,2,12.8c0.9,5.6,0.2,11.4,0.4,17.2
					c0.2,5.5,0.4,10.9,0.6,16.6c0.1,2.7,0.1,5.3,0.2,8c2.1,2.6,6.6,8,11.1,14c0-0.8,0-1.6,0.1-2.4c0.2-6.1-0.6-12.1-1.3-18.1
					c-0.6-6.1-1.4-12.1-2.2-18c-0.8-5.6-2.6-11.2-2.8-17C74,80,74.2,74.4,73.6,68.7c0.4-0.4,0.9-0.7,1.5-1.1
					c3.1-2.1,6.9-4.4,9.3-7.3C86.1,58.6,84.1,55.9,81.9,56.7z M59.7,51.4c-0.1-0.8,0.1-1.6,0-2.4c0.5-3.5,1.1-6.8,1.8-10.2
					c1,3.5,0.6,7.3,0.9,11.2c0,1.8,0.5,3.6,0.6,5.4c-0.1,1.7,0.2,3.2,0.9,4.7c0,0.2,0,0.3,0,0.3s-2.6,1.7-3,1.9
					C60.4,63,60,63,59.8,63c-0.2-0.2-0.2-0.7-0.3-1.4c0.4-2.4,0.8-4.6,0.6-6.9C60,53.5,59.5,52.4,59.7,51.4z"/>
			</g>
		</g>
	</g>
</g>
<g class="st0">
	<g class="st1">
		<path class="st2" d="M147,108.7c-2.1,23.1-4.1,46.3-2.9,69.4c1.9-11.5,3.8-23,5.7-34.6c1.1-6.7,0.8-13.4,0.8-20.1
			c0-11-3.3-10-2.7-12.7"/>
	</g>
	<g class="st1">
		<path class="st2" d="M124.6,169.3c-0.5-13.8-0.9-27.6-1.4-41.4c-0.3-8-0.5-13.8-2.6-22.4c-2.8,8.3-2.9,16.1-3.1,25.8
			c-0.2,9.5,1.7,19.4,3.7,28.5c1.2,5.5,2.6,11.1,4,16.5c0.7-4.9,0.1-10-1.6-14.6"/>
	</g>
	<g class="st1">
		<g>
			<path class="st2" d="M158.2,8.5c0.7-0.3,8.7-4.2,6.1-6c0,0,0,0-0.2,0c-1.1-0.6-3.9-0.4-5-0.2c-2.4,0.4-5,1.6-7.4,2
				c-4.8,1.2-9.8,1.9-14.4,3.1c-5.1,1.3-10.3,3-15.3,5.2c-0.8,0.3-1.7,0.7-2.5,1.1c-0.2-0.4-0.5-0.8-0.6-1.1
				c-6.2-8.9-17.7-5.2-25.6-1.7c-6.8,3-16.6,7-23.1,12.2c-0.4,0.2-0.8,0.7-0.9,1c-0.2,0.7,0.5,1.3,1.1,1.3
				c1.2,0.3,14.6-2.2,14.8-2.9c-0.4,3.3-1.6,6.6-1.7,9.8c-0.1,4.4-0.4,9-1.1,13.3c-0.4,3.8-0.7,7.6-0.8,11.4
				c-1.9,0.7-3.6,1.5-5.7,1.9c-0.7,0.2-1.5,0.2-2,0.2c0-2.6-0.7-5.4-1-7.9c-0.7-5.6-1.8-10.8-2.6-16.2c-0.4-2.6-0.8-5.2-1.3-7.9
				c-0.6-2.9-0.8-7.3-4-8.8c-1.4-0.7-3.6-0.5-4.6,0.7c-0.5,0.5-0.9,1.2-1.2,1.8c-1,1.9-1.8,3.8-2.8,5.6c-0.5,0.9-1,1.8-1.1,2.6
				c-0.3,1-0.4,1.9-0.5,2.9c-0.3,3.2-1.1,6.5-1.9,9.7c-0.7,2.6-0.8,5.2-1,7.8c-0.8,1.6-1.2,3.1-1.6,4.7c-0.9,3.4-0.7,6.8-1.3,10.8
				c-0.5,3.2-0.2,6.5-2.8,8.8c-0.9,1-2.4,1.7-3.5,2.3c-1.3,0.7-2.5,1.5-3.6,2.3c-1-1.8-1.7-3.6-2.7-5.5c-2.2-4.3-4.6-8.7-5.2-13.2
				c1.2-1.9,2.5-3.7,3.4-5.5c3-3.6,6-7.2,8.7-11c1.4-2.1,3.1-4.3,4.1-6.6c0.2-0.5,0.3-0.9,0.5-1.4c3.1-4.2,8.4-11.3,6.3-16.2
				c-0.2-0.8-0.6-1.3-1.2-1.7c-4.4-3.5-14.2,0.9-19,2.6c-7.3,2.6-14.3,5.6-21.4,8.5c-0.7,0.3-1.5,0.7-2.2,1.2c-2.7,1-5.4,2.1-8,3.4
				C2,33,1.7,33.2,1.5,33.5c-0.2,0.4,0.4,1,0.9,1.1c0.6,0.1,4.9,0.1,8.2-0.2c0.4,1.2,0.3,2.5,0.2,3.7c-0.7,4.9-1,10-0.9,16.7
				c0.1,12.9-4,27.5,1.7,40c0.4,3.7,1.1,7.6,2.4,12c0.2,0.7,0.4,1.3,0.9,2c0.6,0.5,1.3,1,2,0.9c0.7-0.3,1.1-1,1.3-1.7
				c1.8-4.6,2.4-9,2.4-13.5c0.2-3.9,0.9-7.4,1.1-11.3c0.2-1.9,0.4-3.8,0.4-5.8c0.2-0.5,0.3-0.7,0.6-1.2c0.9,1,1.8,1.9,2.6,2.7
				c1.8,1.7,3.2,3.5,4.7,5.5c0,0,0.1,0.1,0.1,0.2c-0.4,0.4-0.7,0.9-0.8,1.4c0.6,0.3,1.2,0.1,1.7-0.2c1.1,1.5,2.2,3,3.2,4.5
				c3.2,4.2,6.3,8.4,9.4,12.7c-0.6,2.4-1.2,4.8-1.7,7.2c-0.4,1.6,2,2.4,2.6,0.9s1.2-3.1,1.7-4.6c2.8,3.9,5.6,7.8,8.4,11.7
				c1.3,1.8,2.5,3.5,3.8,5.1c1.8,2.6,3.8,5.1,5.5,7.5c1.6,2.1,3.9,5,6.3,8.1c0.3,2.4,0.7,4.8,1,7.2c0.4,3.2,0.6,6.1,1.7,9
				c0.9,2.1,4.4,3.2,5.5,0.6c0.6-1.5,1.1-3,1.4-4.7c1.4,1.7,2.7,3.3,3.7,4.5c0.4,0.5,0.9,0.9,1.4,1.3c0.7,0.2,1.4,0.2,1.8-0.3
				c0.7-0.9-0.2-2-0.9-2.9c-1.1-1.1-2-2.2-2.9-3.5c-0.9-1.5-6.7-10.1-7.6-11.4c-0.7-1.3-1.8-2.7-2.9-4.1c-9-11.9-15-26.1-22.3-39.4
				c0.6-1.7,1.3-3.3,2-5c1.3-3.5,2.9-6.9,4-10.6c0.6-1.3,0.9-2.7,1.1-4.1c0.4-0.2,0.6-0.2,0.7-0.2c0.9-0.2,1.7-0.4,2.5-0.8
				c0.1,0.2,0.1,0.3,0.1,0.5c0.1,1-0.2,1.9-0.3,2.8v0.1c-0.1,0.6-0.2,1.2-0.3,1.8c0,0.1,0,0.3,0,0.5c0.1,0.5,0.2,0.9,0.8,1.2
				c0.7,0.4,1.6-0.1,1.7-0.8c0.1-1,0.1-2-0.2-3c-0.1-0.5-0.2-0.9-0.3-1.4c0-0.8-0.1-1.5,0-2.3c0.8-0.4,1.5-0.7,2.4-1.1
				c0.6-0.2,1.1-0.5,1.7-0.7c0.6,4.3,1.3,8.6,2,12.8c0.9,5.6,0.2,11.4,0.4,17.2c0.2,5.5,0.4,10.9,0.6,16.6c0.1,2.7,0.1,5.3,0.2,8
				c2.1,2.6,6.6,8,11.1,14c0-0.8,0-1.6,0.1-2.4c0.2-6.1-0.6-12.1-1.3-18.1c-0.6-6.1-1.4-12.1-2.2-18c-0.8-5.6-2.6-11.2-2.8-17
				C74,80,74.2,74.4,73.6,68.7c0.4-0.4,0.9-0.7,1.5-1.1c1.9-1.3,4.2-2.7,6.1-4.3c-0.1,2.7-0.1,5.5-0.1,8.3c0,4.8,0,9.3,0.2,14
				c0.2,4.9,0.9,9.6,0.7,14.3c0,4.7,0,9.3,0,13.8c-0.2,2.6-0.2,4.9-0.2,7.5c0.2,1.5,0.7,11.6,4,10.1c0.9-0.5,1.1-1.8,1.3-2.9
				c3-18.2,5.2-36.8,5.7-55.3c4-5.7,6.5-12.1,10.5-17.8c2-2.8,4-5.7,6-8.7c0.3,1,0.5,2,0.7,3c0.1,0.7,0.2,1.5,0.3,2.2
				c0.1,1.2,0.2,2.4,0.4,3.6c0.1,1,0.2,2,0.3,3c0.1,4.2,0.2,8.3,0.2,12.4c0,4.3,0.3,8.6-0.5,12.8c-0.2,1.4-0.4,2.8-0.6,4.1
				c-0.2,1,0.1,1.8,0.8,2.4c0.5,0.5,1.2,0.8,1.9,0.5c0.2-0.1,0.4-0.1,0.6-0.2c0.5-0.2,0.9-0.6,1-1.2c0.1-0.5,0.1-0.9,0.1-1.4
				c0-1.3-0.2-2.5-0.4-3.8c-0.3-1.6-0.6-3.2-0.5-4.9c0.1-0.8,0-1.7,0-2.5c0-7.3,0-14.7,0-22.4c0-1.9,0.3-3.9,0.4-5.8
				c0-0.1,0-0.2,0-0.2c0.2-1.4,0.4-2.7,0.6-4.1c0.2-1.5,0.3-3,0.4-4.5c0.1-0.8,0.2-1.5,0.4-2.3c1.5-2.5,3.2-5.1,4.3-7.8
				c0.5-1.5,1.1-3.1,1.5-4.6c0.1-0.5,0.2-1,0.3-1.5c2.2-0.8,4.5-1.6,6.7-2.4c0.6,9.3,1,18.7,1.6,28c2.4,36.4,0.2,73.1,1.2,109.4
				c0,1,0.1,2,0.1,3c0.7,0,1.4,0.5,1.4,1.4c-0.3,4.2-0.2,8.4,0.1,12.7c0.2,1,0.4,2.1,0.7,3.1s0.7,2.1,1.4,2.7
				c1-8.9,1.9-17.8,2.9-26.7c0.4,0.9,0.7,1.4,0.8,0.6c1.6-16.1,0.8-34,0.5-51.3c0-0.2,0-0.5,0-0.7c0-1.1,0-2.1,0-3.2
				c0-0.4,0-0.8,0-1.2c0-1,0-1.9,0-2.9c0-0.5,0-0.9,0-1.4c0-1,0-1.9,0-2.9c0-0.4,0-0.9,0-1.3c0-1.4,0-2.7,0.1-4.1
				c0.1-3.4,0.1-7,0.2-10.4c0.1-9.8,0.4-19.9,0.5-29.8c0.2-9.6,1.3-19.3,1-29C146.6,14.8,152.5,11.8,158.2,8.5z M23.5,51.4
				c0,0-0.6-11.5-0.1-17.4c0.1-0.6,0.1-1.4,0.8-2c0.5-0.4,1.1-0.8,1.8-1c3.1-1.3,6.2-2.7,9.1-4.2c3.5-1.8,7.9-1.9,6.9,2.5
				c-0.5,1.8-2,3.4-3.1,4.8c-0.9,1.1-1.7,2.1-2.5,3.2c-1.6,2.2-3.1,4.4-4.9,6.3C29.4,46.2,23.5,51.4,23.5,51.4z M42.1,82.3
				c1.6-0.6,3.1-1.3,4.5-2.1c0-0.2,0.2-0.2,0.2-0.2c-0.2,2.8-0.2,5.6-0.4,8.1c0,0.1,0,0.3,0,0.4C45.1,86.5,43.6,84.4,42.1,82.3z
				 M60.9,62.5C60.4,63,60,63,59.8,63c-0.2-0.2-0.2-0.7-0.3-1.4c0.4-2.4,0.8-4.6,0.6-6.9c-0.1-1.1-0.5-2.3-0.4-3.2
				c-0.1-0.8,0.1-1.6,0-2.4c0.5-3.5,1.1-6.8,1.8-10.2c1,3.5,0.6,7.3,0.9,11.2c0,1.8,0.5,3.6,0.6,5.4c-0.1,1.7,0.2,3.2,0.9,4.7
				c0,0.2,0,0.3,0,0.3S61.2,62.3,60.9,62.5z M105.4,31.5c-0.2,0.2-0.2,0.6-0.4,0.8c-0.9,1.2-2,2.4-2.9,3.9s-1.5,3.5-2.2,5.2
				c-1.8,3.6-5.1,6.2-6,10.3c0.5-5.6,0.9-11.4,0.5-16.9c0-1.3-1.7-15.3-2.2-15c2.4-0.8,4.7-1.5,6.9-2.2c2.2-0.6,4.6-1.2,6.4,0.3
				c1.3,1.1,1.8,3,2,4.8C107.9,25.6,107,28.9,105.4,31.5z"/>
		</g>
		<g>
			<path class="st2" d="M264.2,54c-0.7-1.5-2.2-2.8-4.2-3.1c-1.5-0.2-2.9,0-4.4,0.2c-3.5,0.7-7,1.4-10.5,2.6c-4,1.3-4.9,0.3-2.4-2.6
				c3.5-4.1,6.6-7.7,9.4-11.3c0.9,0.2,1.1,1.1,1.1,1.7c-0.1,1.3,0,2.9,0.6,4.4c0.2,0.6,0.6,1.2,0.7,1.8c0.2,0.1,0.2,0.3,0.4,0.4
				c0.2,0.1,0.4,0.1,0.6,0.1c3.9-0.5,4.1-5.5,4.4-7.1c0.6-3.1,0.6-6.3-0.2-10.5c0-0.7-0.2-1.6-0.9-2.3c-0.9-1.1-2.4-1.4-3.7-1.3
				s-2.4,0.6-3.5,1.1c-6.3,3.1-10.9,7-13.8,11.7c-0.9,1.3-1.7,2.7-2.6,4.2c-2.4,3.8-6.1,7.5-7.7,13.1c-0.9,3.3-3.5,11,0.7,13.5
				c0.4,0.3,0.9,0.5,1.7,0.5c7.4,0.7,11.4-6.3,17.7-8.9c0.9-0.5,2-0.7,2.9-0.5c4.2,1.4,0.2,16.2-0.6,18.9c-2.4,7.9-5.3,15.6-8,23.3
				c-2.5-2.6-4.8-5.1-7-7.8c-2.4-2.6-4.6-5.2-6.6-8.2c-2-2.6-4.2-5.4-6.3-8.3c-3.1-4.5-6.1-9.5-9-14.8c-0.6-1.1-1.1-2-1.8-2.8
				c1.5-2.6,2.8-4.8,4.4-6.8c3.9-4.7,7.9-8.9,11.6-12.7c1.7-1.7,3.5-3.4,4.8-5.1c0.6-0.9,1.1-1.9,1.5-2.8c0.9-2.4,0.2-5.5-1.5-8.4
				c-0.2-0.5-0.6-0.9-0.7-1.2c-5.9-8.5-16.4-10-25.8-9.8c-7,0.1-14.4,0.5-20.6,4.1c-0.1,0-0.2,0.1-0.2,0.1c-2.1-5.2-5.8-9.3-12-9.9
				c-0.6,0-1.1,0-1.7,0c-5.5-1.8-12.1-0.1-16.4,3.4c-3.1,2.5-4.6,7-5.3,11.3c-0.9,5.4-1.5,11-1.4,16.4c0,5.4,0.9,10.9,1,16.3
				c0,6,0,11.9,0.2,17.5c0.4,10.9,1.6,22.4,3.9,33c0.4,2.1,1,4.2,2,6.1c0,1.5-0.6,3.7-0.4,4.7c0.1,0.9,0.3,1.9,0.6,2.7
				c0.5,1.3,1.7,2.2,3.1,2.1c0.3,0,0.6-0.2,0.9-0.2c0.6-0.1,1.1-0.5,1.6-0.8c0.6-0.5,1.2-1,1.9-1.5c0.1-0.1,0.3-0.2,0.4-0.3
				c0.6,0.1,1.3,0.1,2,0.1c0.3,0.2,0.6,0.4,0.8,0.7c0.6,0.8,0.7,1.8,0.9,2.7c0.2,1.1,0.1,2.2,0.2,3.2c0.1,1.3-0.1,2.5,0.2,3.8
				c0.1,0.7,0.1,1.4,0.1,2.1c0,1,0,1.9,0,2.9c0,0.1,0,0.2,0,0.2c0.2,0.5,0.2,1,0,1.5c0,0.1,0,0.3,0,0.4c0,0.3,0,0.5,0,0.8
				c-0.1,1.4,0,2.9-0.4,4.3c0,0.1,0,0.3,0,0.4c-0.1,1.2-0.3,2.4-0.4,3.7c0,0.1,0,0.2,0,0.2c-0.1,0.5-0.2,1.1-0.2,1.6
				c0,1,0,1.9,0,2.9c0,0.9,0.4,1.5,1,2c0.5,0.4,1,0.7,1.6,0.6c0.5-0.1,1-0.3,1.4-0.6c0.5-0.5,0.8-1.1,1-1.8c0.2-0.8,0.3-1.6,0.2-2.5
				c-0.2-1.4-0.5-2.7-0.5-4.1c0-0.1,0-0.2,0-0.2c-0.1-1-0.2-1.9-0.3-2.9c-0.1-0.7-0.1-1.4-0.1-2c0-0.8-0.1-1.5-0.1-2.3
				c0-0.5,0-1-0.1-1.5c0-0.1,0-0.2,0-0.4c0.2-0.7,0.2-1.4,0.1-2.1c0-0.3-0.1-0.6,0-0.8c0.2-0.4,0.1-0.9,0.2-1.3c0-0.6,0.1-1.2,0-1.8
				c0-0.2,0-0.4,0.1-0.5c0-0.1,0-0.3,0-0.4c0-0.5,0-1,0-1.6c0.1-1.2,0.1-2.3,0.2-3.5c0.1-0.9,0.2-1.8,0.4-2.7v-0.1
				c0.2-0.7,0.3-1.4,0.5-2.1c0.1-0.6,0.2-1.2,0.4-1.7c0.2-0.6,0.4-1.2,0.7-1.8c0.6-0.7,1.1-1.5,1.5-2.4l0.1-0.1l0,0
				c0.8-1.5,1.4-3.1,1.8-4.6c1.3-4.7,2.6-9.6,3.9-14.3c5.2-19.9,8.2-39.5,7.5-60c-0.1-3.7-0.6-8.1-1.8-12.2
				c2.8,0.6,12.2,1.8,12.4,1.2c-0.4,3-1.5,5.8-1.7,8.8c-0.2,4.2-0.6,8.3-1.3,12.6c-1.1,8.3-1.7,17.4-1.7,26.3
				c0,4.6,0.1,9.3,0.2,13.8c0.2,9.6,0.5,20.7,3.1,30.1c0.2,0.7,0.4,1.4,0.9,2c0.6,0.5,1.3,0.7,2,0.4c0.7-0.5,1.1-1.5,1.3-2.2
				c1.8-5.5,2.4-10.8,2.4-16.1c0.2-4.6,0.9-8.9,1.1-13.5c0.2-2.2,0.4-4.4,0.4-6.7c1.2,1.5,2.3,2.8,3.4,4.2c0.6,1.7,1,3.5,1,5.2
				c0,2.5,1.8,2.7,3.7,2.2c0.6,0.9,1.1,1.9,1.8,2.8c5.8,7.7,15.2,13,22.4,18.6c0.6,0.4,1.1,0.9,1.7,1.4c-0.9,2.9-1.8,5.9-2.6,8.9
				c0,0.5-0.2,1.1,0,1.5c0.6,0.9,2.1,0.9,3.1,0.3c1.1-0.6,1.8-1.5,2.4-2.5c0.7-1.2,1.4-2.5,2.1-3.7c2.5,2.2,5.1,4.1,7.8,4.9
				c9.8,2.9-1.7-9.9-3.3-11.8c-0.2-0.2-0.4-0.4-0.6-0.6c3.5-7,6.7-14.1,10-21c4.6-9.4,6.8-19.7,7.2-29.9C265,57.4,265,55.4,264.2,54
				z M171.2,71.4c-0.7,7-2.6,13.9-3.1,20.7c-0.2,2.4,1.5,13-2.4,13c-1.5,0-2.3-1.9-2.6-3.3c-5.2-23.6-4.2-47,1.1-71.3
				c0.4-1.6,0.7-3.3,1.3-4.9c0.2-0.7,0.6-1.5,1.1-2c1.1-1.3,3.5-0.5,4.6,1c0.9,1.7,1.1,3.7,1.3,5.5
				C173.2,43.9,172.6,57.7,171.2,71.4z M206,51.2c0.6-5.2,0.9-10,0.6-15c0-1.1-1.7-13.6-2.2-13.6c2.4,0,4.8,0.2,7,0.3
				c2.2,0.2,4.6,0.4,6.4,2.2c1.3,1.2,1.8,2.9,2,4.4c0.3,2.4-0.6,4.7-2.2,6.3c-0.2,0.1-0.2,0.4-0.4,0.5c-0.9,0.7-2,1.5-2.9,2.4
				c-0.9,1.2-1.5,2.7-2.2,3.9C210.3,45.5,206.9,47.6,206,51.2z"/>
		</g>
	</g>
</g>
<g class="st0">
	<g class="st1">
		<path class="st2" d="M147,108.7c-2.1,23.1-4.1,46.3-2.9,69.4c1.9-11.5,3.8-23,5.7-34.6c1.1-6.7,0.8-13.4,0.8-20.1
			c0-11-3.3-10-2.7-12.7"/>
	</g>
	<g class="st1">
		<path class="st2" d="M124.6,169.3c-0.5-13.8-0.9-27.6-1.4-41.4c-0.3-8-0.5-13.8-2.6-22.4c-2.8,8.3-2.9,16.1-3.1,25.8
			c-0.2,9.5,1.7,19.4,3.7,28.5c1.2,5.5,2.6,11.1,4,16.5c0.7-4.9,0.1-10-1.6-14.6"/>
	</g>
	<g class="st1">
		<path class="st2" d="M158.2,8.5c0.7-0.3,8.7-4.2,6.1-6c0,0,0,0-0.2,0c-1.1-0.6-3.9-0.4-5-0.2c-2.4,0.4-5,1.6-7.4,2
			c-4.8,1.2-9.8,1.9-14.4,3.1c-5.1,1.3-10.3,3-15.3,5.2c-0.8,0.3-1.7,0.7-2.5,1.1c-0.2-0.4-0.5-0.8-0.6-1.1
			c-6.2-8.9-17.7-5.2-25.6-1.7c-6.8,3-16.6,7-23.1,12.2c-0.4,0.2-0.8,0.7-0.9,1c-0.2,0.7,0.5,1.3,1.1,1.3c1.2,0.3,14.6-2.2,14.8-2.9
			c-0.4,3.3-1.6,6.6-1.7,9.8c-0.1,4.4-0.4,9-1.1,13.3c-0.4,3.8-0.7,7.6-0.8,11.4c-1.9,0.7-3.6,1.5-5.7,1.9c-0.7,0.2-1.5,0.2-2,0.2
			c0-2.6-0.7-5.4-1-7.9c-0.7-5.6-1.8-10.8-2.6-16.2c-0.4-2.6-0.8-5.2-1.3-7.9c-0.6-2.9-0.8-7.3-4-8.8c-1.4-0.7-3.6-0.5-4.6,0.7
			c-0.5,0.5-0.9,1.2-1.2,1.8c-1,1.9-1.8,3.8-2.8,5.6c-0.5,0.9-1,1.8-1.1,2.6c-0.3,1-0.4,1.9-0.5,2.9c-0.3,3.2-1.1,6.5-1.9,9.7
			c-0.7,2.6-0.8,5.2-1,7.8c-0.8,1.6-1.2,3.1-1.6,4.7c-0.9,3.4-0.7,6.8-1.3,10.8c-0.5,3.2-0.2,6.5-2.8,8.8c-0.9,1-2.4,1.7-3.5,2.3
			c-1.3,0.7-2.5,1.5-3.6,2.3c-1-1.8-1.7-3.6-2.7-5.5c-2.2-4.3-4.6-8.7-5.2-13.2c1.2-1.9,2.5-3.7,3.4-5.5c3-3.6,6-7.2,8.7-11
			c1.4-2.1,3.1-4.3,4.1-6.6c0.2-0.5,0.3-0.9,0.5-1.4c3.1-4.2,8.4-11.3,6.3-16.2c-0.2-0.8-0.6-1.3-1.2-1.7c-4.4-3.5-14.2,0.9-19,2.6
			c-7.3,2.6-14.3,5.6-21.4,8.5c-0.7,0.3-1.5,0.7-2.2,1.2c-2.7,1-5.4,2.1-8,3.4C2,33,1.7,33.2,1.5,33.5c-0.2,0.4,0.4,1,0.9,1.1
			c0.6,0.1,4.9,0.1,8.2-0.2c0.4,1.2,0.3,2.5,0.2,3.7c-0.7,4.9-1,10-0.9,16.7c0.1,12.9-4,27.5,1.7,40c0.4,3.7,1.1,7.6,2.4,12
			c0.2,0.7,0.4,1.3,0.9,2c0.6,0.5,1.3,1,2,0.9c0.7-0.3,1.1-1,1.3-1.7c1.8-4.6,2.4-9,2.4-13.5c0.2-3.9,0.9-7.4,1.1-11.3
			c0.2-1.9,0.4-3.8,0.4-5.8c0.2-0.5,0.3-0.7,0.6-1.2c0.9,1,1.8,1.9,2.6,2.7c1.8,1.7,3.2,3.5,4.7,5.5c0,0,0.1,0.1,0.1,0.2
			c-0.4,0.4-0.7,0.9-0.8,1.4c0.6,0.3,1.2,0.1,1.7-0.2c1.1,1.5,2.2,3,3.2,4.5c3.2,4.2,6.3,8.4,9.4,12.7c-0.6,2.4-1.2,4.8-1.7,7.2
			c-0.4,1.6,2,2.4,2.6,0.9s1.2-3.1,1.7-4.6c2.8,3.9,5.6,7.8,8.4,11.7c1.3,1.8,2.5,3.5,3.8,5.1c1.8,2.6,3.8,5.1,5.5,7.5
			c1.6,2.1,3.9,5,6.3,8.1c0.3,2.4,0.7,4.8,1,7.2c0.4,3.2,0.6,6.1,1.7,9c0.9,2.1,4.4,3.2,5.5,0.6c0.6-1.5,1.1-3,1.4-4.7
			c1.4,1.7,2.7,3.3,3.7,4.5c0.4,0.5,0.9,0.9,1.4,1.3c0.7,0.2,1.4,0.2,1.8-0.3c0.7-0.9-0.2-2-0.9-2.9c-1.1-1.1-2-2.2-2.9-3.5
			c-0.9-1.5-6.7-10.1-7.6-11.4c-0.7-1.3-1.8-2.7-2.9-4.1c-9-11.9-15-26.1-22.3-39.4c0.6-1.7,1.3-3.3,2-5c1.3-3.5,2.9-6.9,4-10.6
			c0.6-1.3,0.9-2.7,1.1-4.1c0.4-0.2,0.6-0.2,0.7-0.2c0.9-0.2,1.7-0.4,2.5-0.8c0.1,0.2,0.1,0.3,0.1,0.5c0.1,1-0.2,1.9-0.3,2.8v0.1
			c-0.1,0.6-0.2,1.2-0.3,1.8c0,0.1,0,0.3,0,0.5c0.1,0.5,0.2,0.9,0.8,1.2c0.7,0.4,1.6-0.1,1.7-0.8c0.1-1,0.1-2-0.2-3
			c-0.1-0.5-0.2-0.9-0.3-1.4c0-0.8-0.1-1.5,0-2.3c0.8-0.4,1.5-0.7,2.4-1.1c0.6-0.2,1.1-0.5,1.7-0.7c0.6,4.3,1.3,8.6,2,12.8
			c0.9,5.6,0.2,11.4,0.4,17.2c0.2,5.5,0.4,10.9,0.6,16.6c0.1,2.7,0.1,5.3,0.2,8c2.1,2.6,6.6,8,11.1,14c0-0.8,0-1.6,0.1-2.4
			c0.2-6.1-0.6-12.1-1.3-18.1c-0.6-6.1-1.4-12.1-2.2-18c-0.8-5.6-2.6-11.2-2.8-17C74,80,74.2,74.4,73.6,68.7
			c0.4-0.4,0.9-0.7,1.5-1.1c1.9-1.3,4.2-2.7,6.1-4.3c-0.1,2.7-0.1,5.5-0.1,8.3c0,4.8,0,9.3,0.2,14c0.2,4.9,0.9,9.6,0.7,14.3
			c0,4.7,0,9.3,0,13.8c-0.2,2.6-0.2,4.9-0.2,7.5c0.2,1.5,0.7,11.6,4,10.1c0.9-0.5,1.1-1.8,1.3-2.9c3-18.2,5.2-36.8,5.7-55.3
			c4-5.7,6.5-12.1,10.5-17.8c2-2.8,4-5.7,6-8.7c0.3,1,0.5,2,0.7,3c0.1,0.7,0.2,1.5,0.3,2.2c0.1,1.2,0.2,2.4,0.4,3.6
			c0.1,1,0.2,2,0.3,3c0.1,4.2,0.2,8.3,0.2,12.4c0,4.3,0.3,8.6-0.5,12.8c-0.2,1.4-0.4,2.8-0.6,4.1c-0.2,1,0.1,1.8,0.8,2.4
			c0.5,0.5,1.2,0.8,1.9,0.5c0.2-0.1,0.4-0.1,0.6-0.2c0.5-0.2,0.9-0.6,1-1.2c0.1-0.5,0.1-0.9,0.1-1.4c0-1.3-0.2-2.5-0.4-3.8
			c-0.3-1.6-0.6-3.2-0.5-4.9c0.1-0.8,0-1.7,0-2.5c0-7.3,0-14.7,0-22.4c0-1.9,0.3-3.9,0.4-5.8c0-0.1,0-0.2,0-0.2
			c0.2-1.4,0.4-2.7,0.6-4.1c0.2-1.5,0.3-3,0.4-4.5c0.1-0.8,0.2-1.5,0.4-2.3c1.5-2.5,3.2-5.1,4.3-7.8c0.5-1.5,1.1-3.1,1.5-4.6
			c0.1-0.5,0.2-1,0.3-1.5c2.2-0.8,4.5-1.6,6.7-2.4c0.6,9.3,1,18.7,1.6,28c2.4,36.4,0.2,73.1,1.2,109.4c0,1,0.1,2,0.1,3
			c0.7,0,1.4,0.5,1.4,1.4c-0.3,4.2-0.2,8.4,0.1,12.7c0.2,1,0.4,2.1,0.7,3.1s0.7,2.1,1.4,2.7c1-8.9,1.9-17.8,2.9-26.7
			c0.4,0.9,0.7,1.4,0.8,0.6c1.6-16.1,0.8-34,0.5-51.3c0-0.2,0-0.5,0-0.7c0-1.1,0-2.1,0-3.2c0-0.4,0-0.8,0-1.2c0-1,0-1.9,0-2.9
			c0-0.5,0-0.9,0-1.4c0-1,0-1.9,0-2.9c0-0.4,0-0.9,0-1.3c0-1.4,0-2.7,0.1-4.1c0.1-3.4,0.1-7,0.2-10.4c0.1-9.8,0.4-19.9,0.5-29.8
			c0.2-9.6,1.3-19.3,1-29C146.6,14.8,152.5,11.8,158.2,8.5z M23.5,51.4c0,0-0.6-11.5-0.1-17.4c0.1-0.6,0.1-1.4,0.8-2
			c0.5-0.4,1.1-0.8,1.8-1c3.1-1.3,6.2-2.7,9.1-4.2c3.5-1.8,7.9-1.9,6.9,2.5c-0.5,1.8-2,3.4-3.1,4.8c-0.9,1.1-1.7,2.1-2.5,3.2
			c-1.6,2.2-3.1,4.4-4.9,6.3C29.4,46.2,23.5,51.4,23.5,51.4z M42.1,82.3c1.6-0.6,3.1-1.3,4.5-2.1c0-0.2,0.2-0.2,0.2-0.2
			c-0.2,2.8-0.2,5.6-0.4,8.1c0,0.1,0,0.3,0,0.4C45.1,86.5,43.6,84.4,42.1,82.3z M60.9,62.5C60.4,63,60,63,59.8,63
			c-0.2-0.2-0.2-0.7-0.3-1.4c0.4-2.4,0.8-4.6,0.6-6.9c-0.1-1.1-0.5-2.3-0.4-3.2c-0.1-0.8,0.1-1.6,0-2.4c0.5-3.5,1.1-6.8,1.8-10.2
			c1,3.5,0.6,7.3,0.9,11.2c0,1.8,0.5,3.6,0.6,5.4c-0.1,1.7,0.2,3.2,0.9,4.7c0,0.2,0,0.3,0,0.3S61.2,62.3,60.9,62.5z M105.4,31.5
			c-0.2,0.2-0.2,0.6-0.4,0.8c-0.9,1.2-2,2.4-2.9,3.9s-1.5,3.5-2.2,5.2c-1.8,3.6-5.1,6.2-6,10.3c0.5-5.6,0.9-11.4,0.5-16.9
			c0-1.3-1.7-15.3-2.2-15c2.4-0.8,4.7-1.5,6.9-2.2c2.2-0.6,4.6-1.2,6.4,0.3c1.3,1.1,1.8,3,2,4.8C107.9,25.6,107,28.9,105.4,31.5z
			 M264.2,54c-0.7-1.5-2.2-2.8-4.2-3.1c-1.5-0.2-2.9,0-4.4,0.2c-3.5,0.7-7,1.4-10.5,2.6c-4,1.3-4.9,0.3-2.4-2.6
			c3.5-4.1,6.6-7.7,9.4-11.3c0.9,0.2,1.1,1.1,1.1,1.7c-0.1,1.3,0,2.9,0.6,4.4c0.2,0.6,0.6,1.2,0.7,1.8c0.2,0.1,0.2,0.3,0.4,0.4
			c0.2,0.1,0.4,0.1,0.6,0.1c3.9-0.5,4.1-5.5,4.4-7.1c0.6-3.1,0.6-6.3-0.2-10.5c0-0.7-0.2-1.6-0.9-2.3c-0.9-1.1-2.4-1.4-3.7-1.3
			s-2.4,0.6-3.5,1.1c-6.3,3.1-10.9,7-13.8,11.7c-0.9,1.3-1.7,2.7-2.6,4.2c-2.4,3.8-6.1,7.5-7.7,13.1c-0.9,3.3-3.5,11,0.7,13.5
			c0.4,0.3,0.9,0.5,1.7,0.5c7.4,0.7,11.4-6.3,17.7-8.9c0.9-0.5,2-0.7,2.9-0.5c4.2,1.4,0.2,16.2-0.6,18.9c-2.4,7.9-5.3,15.6-8,23.3
			c-2.5-2.6-4.8-5.1-7-7.8c-2.4-2.6-4.6-5.2-6.6-8.2c-2-2.6-4.2-5.4-6.3-8.3c-3.1-4.5-6.1-9.5-9-14.8c-0.6-1.1-1.1-2-1.8-2.8
			c1.5-2.6,2.8-4.8,4.4-6.8c3.9-4.7,7.9-8.9,11.6-12.7c1.7-1.7,3.5-3.4,4.8-5.1c0.6-0.9,1.1-1.9,1.5-2.8c0.9-2.4,0.2-5.5-1.5-8.4
			c-0.2-0.5-0.6-0.9-0.7-1.2c-5.9-8.5-16.4-10-25.8-9.8c-7,0.1-14.4,0.5-20.6,4.1c-0.1,0-0.2,0.1-0.2,0.1c-2.1-5.2-5.8-9.3-12-9.9
			c-0.6,0-1.1,0-1.7,0c-5.5-1.8-12.1-0.1-16.4,3.4c-3.1,2.5-4.6,7-5.3,11.3c-0.9,5.4-1.5,11-1.4,16.4c0,5.4,0.9,10.9,1,16.3
			c0,6,0,11.9,0.2,17.5c0.4,10.9,1.6,22.4,3.9,33c0.4,2.1,1,4.2,2,6.1c0,1.5-0.6,3.7-0.4,4.7c0.1,0.9,0.3,1.9,0.6,2.7
			c0.5,1.3,1.7,2.2,3.1,2.1c0.3,0,0.6-0.2,0.9-0.2c0.6-0.1,1.1-0.5,1.6-0.8c0.6-0.5,1.2-1,1.9-1.5c0.1-0.1,0.3-0.2,0.4-0.3
			c0.6,0.1,1.3,0.1,2,0.1c0.3,0.2,0.6,0.4,0.8,0.7c0.6,0.8,0.7,1.8,0.9,2.7c0.2,1.1,0.1,2.2,0.2,3.2c0.1,1.3-0.1,2.5,0.2,3.8
			c0.1,0.7,0.1,1.4,0.1,2.1c0,1,0,1.9,0,2.9c0,0.1,0,0.2,0,0.2c0.2,0.5,0.2,1,0,1.5c0,0.1,0,0.3,0,0.4c0,0.3,0,0.5,0,0.8
			c-0.1,1.4,0,2.9-0.4,4.3c0,0.1,0,0.3,0,0.4c-0.1,1.2-0.3,2.4-0.4,3.7c0,0.1,0,0.2,0,0.2c-0.1,0.5-0.2,1.1-0.2,1.6c0,1,0,1.9,0,2.9
			c0,0.9,0.4,1.5,1,2c0.5,0.4,1,0.7,1.6,0.6c0.5-0.1,1-0.3,1.4-0.6c0.5-0.5,0.8-1.1,1-1.8c0.2-0.8,0.3-1.6,0.2-2.5
			c-0.2-1.4-0.5-2.7-0.5-4.1c0-0.1,0-0.2,0-0.2c-0.1-1-0.2-1.9-0.3-2.9c-0.1-0.7-0.1-1.4-0.1-2c0-0.8-0.1-1.5-0.1-2.3
			c0-0.5,0-1-0.1-1.5c0-0.1,0-0.2,0-0.4c0.2-0.7,0.2-1.4,0.1-2.1c0-0.3-0.1-0.6,0-0.8c0.2-0.4,0.1-0.9,0.2-1.3c0-0.6,0.1-1.2,0-1.8
			c0-0.2,0-0.4,0.1-0.5c0-0.1,0-0.3,0-0.4c0-0.5,0-1,0-1.6c0.1-1.2,0.1-2.3,0.2-3.5c0.1-0.9,0.2-1.8,0.4-2.7v-0.1
			c0.2-0.7,0.3-1.4,0.5-2.1c0.1-0.6,0.2-1.2,0.4-1.7c0.2-0.6,0.4-1.2,0.7-1.8c0.6-0.7,1.1-1.5,1.5-2.4l0.1-0.1l0,0
			c0.8-1.5,1.4-3.1,1.8-4.6c1.3-4.7,2.6-9.6,3.9-14.3c5.2-19.9,8.2-39.5,7.5-60c-0.1-3.7-0.6-8.1-1.8-12.2
			c2.8,0.6,12.2,1.8,12.4,1.2c-0.4,3-1.5,5.8-1.7,8.8c-0.2,4.2-0.6,8.3-1.3,12.6c-1.1,8.3-1.7,17.4-1.7,26.3c0,4.6,0.1,9.3,0.2,13.8
			c0.2,9.6,0.5,20.7,3.1,30.1c0.2,0.7,0.4,1.4,0.9,2c0.6,0.5,1.3,0.7,2,0.4c0.7-0.5,1.1-1.5,1.3-2.2c1.8-5.5,2.4-10.8,2.4-16.1
			c0.2-4.6,0.9-8.9,1.1-13.5c0.2-2.2,0.4-4.4,0.4-6.7c1.2,1.5,2.3,2.8,3.4,4.2c0.6,1.7,1,3.5,1,5.2c0,2.5,1.8,2.7,3.7,2.2
			c0.6,0.9,1.1,1.9,1.8,2.8c5.8,7.7,15.2,13,22.4,18.6c0.6,0.4,1.1,0.9,1.7,1.4c-0.9,2.9-1.8,5.9-2.6,8.9c0,0.5-0.2,1.1,0,1.5
			c0.6,0.9,2.1,0.9,3.1,0.3c1.1-0.6,1.8-1.5,2.4-2.5c0.7-1.2,1.4-2.5,2.1-3.7c2.5,2.2,5.1,4.1,7.8,4.9c9.8,2.9-1.7-9.9-3.3-11.8
			c-0.2-0.2-0.4-0.4-0.6-0.6c3.5-7,6.7-14.1,10-21c4.6-9.4,6.8-19.7,7.2-29.9C265,57.4,265,55.4,264.2,54z M171.2,71.4
			c-0.7,7-2.6,13.9-3.1,20.7c-0.2,2.4,1.5,13-2.4,13c-1.5,0-2.3-1.9-2.6-3.3c-5.2-23.6-4.2-47,1.1-71.3c0.4-1.6,0.7-3.3,1.3-4.9
			c0.2-0.7,0.6-1.5,1.1-2c1.1-1.3,3.5-0.5,4.6,1c0.9,1.7,1.1,3.7,1.3,5.5C173.2,43.9,172.6,57.7,171.2,71.4z M206,51.2
			c0.6-5.2,0.9-10,0.6-15c0-1.1-1.7-13.6-2.2-13.6c2.4,0,4.8,0.2,7,0.3c2.2,0.2,4.6,0.4,6.4,2.2c1.3,1.2,1.8,2.9,2,4.4
			c0.3,2.4-0.6,4.7-2.2,6.3c-0.2,0.1-0.2,0.4-0.4,0.5c-0.9,0.7-2,1.5-2.9,2.4c-0.9,1.2-1.5,2.7-2.2,3.9
			C210.3,45.5,206.9,47.6,206,51.2z"/>
	</g>
</g>
<g>
	<g>
		<g>
			<path class="st3" d="M147,108.7c-2.1,23.1-4.1,46.3-2.9,69.4c1.9-11.5,3.8-23,5.7-34.6c1.1-6.7,0.8-13.4,0.8-20.1
				c0-11-3.3-10-2.7-12.7"/>
		</g>
		<g>
			<path class="st3" d="M124.6,169.3c-0.5-13.8-0.9-27.6-1.4-41.4c-0.3-8-0.5-13.8-2.6-22.4c-2.8,8.3-2.9,16.1-3.1,25.8
				c-0.2,9.5,1.7,19.4,3.7,28.5c1.2,5.5,2.6,11.1,4,16.5c0.7-4.9,0.1-10-1.6-14.6"/>
		</g>
		<g>
			<path class="st3" d="M158.2,8.5c0.7-0.3,8.7-4.2,6.1-6c0,0,0,0-0.2,0c-1.1-0.6-3.9-0.4-5-0.2c-2.4,0.4-5,1.6-7.4,2
				c-4.8,1.2-9.8,1.9-14.4,3.1c-5.1,1.3-10.3,3-15.3,5.2c-0.8,0.3-1.7,0.7-2.5,1.1c-0.2-0.4-0.5-0.8-0.6-1.1
				c-6.2-8.9-17.7-5.2-25.6-1.7c-6.8,3-16.6,7-23.1,12.2c-0.4,0.2-0.8,0.7-0.9,1c-0.2,0.7,0.5,1.3,1.1,1.3
				c1.2,0.3,14.6-2.2,14.8-2.9c-0.4,3.3-1.6,6.6-1.7,9.8c-0.1,4.4-0.4,9-1.1,13.3c-0.4,3.8-0.7,7.6-0.8,11.4
				c-1.9,0.7-3.6,1.5-5.7,1.9c-0.7,0.2-1.5,0.2-2,0.2c0-2.6-0.7-5.4-1-7.9c-0.7-5.6-1.8-10.8-2.6-16.2c-0.4-2.6-0.8-5.2-1.3-7.9
				c-0.6-2.9-0.8-7.3-4-8.8c-1.4-0.7-3.6-0.5-4.6,0.7c-0.5,0.5-0.9,1.2-1.2,1.8c-1,1.9-1.8,3.8-2.8,5.6c-0.5,0.9-1,1.8-1.1,2.6
				c-0.3,1-0.4,1.9-0.5,2.9c-0.3,3.2-1.1,6.5-1.9,9.7c-0.7,2.6-0.8,5.2-1,7.8c-0.8,1.6-1.2,3.1-1.6,4.7c-0.9,3.4-0.7,6.8-1.3,10.8
				c-0.5,3.2-0.2,6.5-2.8,8.8c-0.9,1-2.4,1.7-3.5,2.3c-1.3,0.7-2.5,1.5-3.6,2.3c-1-1.8-1.7-3.6-2.7-5.5c-2.2-4.3-4.6-8.7-5.2-13.2
				c1.2-1.9,2.5-3.7,3.4-5.5c3-3.6,6-7.2,8.7-11c1.4-2.1,3.1-4.3,4.1-6.6c0.2-0.5,0.3-0.9,0.5-1.4c3.1-4.2,8.4-11.3,6.3-16.2
				c-0.2-0.8-0.6-1.3-1.2-1.7c-4.4-3.5-14.2,0.9-19,2.6c-7.3,2.6-14.3,5.6-21.4,8.5c-0.7,0.3-1.5,0.7-2.2,1.2c-2.7,1-5.4,2.1-8,3.4
				C2,33,1.7,33.2,1.5,33.5c-0.2,0.4,0.4,1,0.9,1.1c0.6,0.1,4.9,0.1,8.2-0.2c0.4,1.2,0.3,2.5,0.2,3.7c-0.7,4.9-1,10-0.9,16.7
				c0.1,12.9-4,27.5,1.7,40c0.4,3.7,1.1,7.6,2.4,12c0.2,0.7,0.4,1.3,0.9,2c0.6,0.5,1.3,1,2,0.9c0.7-0.3,1.1-1,1.3-1.7
				c1.8-4.6,2.4-9,2.4-13.5c0.2-3.9,0.9-7.4,1.1-11.3c0.2-1.9,0.4-3.8,0.4-5.8c0.2-0.5,0.3-0.7,0.6-1.2c0.9,1,1.8,1.9,2.6,2.7
				c1.8,1.7,3.2,3.5,4.7,5.5c0,0,0.1,0.1,0.1,0.2c-0.4,0.4-0.7,0.9-0.8,1.4c0.6,0.3,1.2,0.1,1.7-0.2c1.1,1.5,2.2,3,3.2,4.5
				c3.2,4.2,6.3,8.4,9.4,12.7c-0.6,2.4-1.2,4.8-1.7,7.2c-0.4,1.6,2,2.4,2.6,0.9s1.2-3.1,1.7-4.6c2.8,3.9,5.6,7.8,8.4,11.7
				c1.3,1.8,2.5,3.5,3.8,5.1c1.8,2.6,3.8,5.1,5.5,7.5c1.6,2.1,3.9,5,6.3,8.1c0.3,2.4,0.7,4.8,1,7.2c0.4,3.2,0.6,6.1,1.7,9
				c0.9,2.1,4.4,3.2,5.5,0.6c0.6-1.5,1.1-3,1.4-4.7c1.4,1.7,2.7,3.3,3.7,4.5c0.4,0.5,0.9,0.9,1.4,1.3c0.7,0.2,1.4,0.2,1.8-0.3
				c0.7-0.9-0.2-2-0.9-2.9c-1.1-1.1-2-2.2-2.9-3.5c-0.9-1.5-6.7-10.1-7.6-11.4c-0.7-1.3-1.8-2.7-2.9-4.1c-9-11.9-15-26.1-22.3-39.4
				c0.6-1.7,1.3-3.3,2-5c1.3-3.5,2.9-6.9,4-10.6c0.6-1.3,0.9-2.7,1.1-4.1c0.4-0.2,0.6-0.2,0.7-0.2c0.9-0.2,1.7-0.4,2.5-0.8
				c0.1,0.2,0.1,0.3,0.1,0.5c0.1,1-0.2,1.9-0.3,2.8v0.1c-0.1,0.6-0.2,1.2-0.3,1.8c0,0.1,0,0.3,0,0.5c0.1,0.5,0.2,0.9,0.8,1.2
				c0.7,0.4,1.6-0.1,1.7-0.8c0.1-1,0.1-2-0.2-3c-0.1-0.5-0.2-0.9-0.3-1.4c0-0.8-0.1-1.5,0-2.3c0.8-0.4,1.5-0.7,2.4-1.1
				c0.6-0.2,1.1-0.5,1.7-0.7c0.6,4.3,1.3,8.6,2,12.8c0.9,5.6,0.2,11.4,0.4,17.2c0.2,5.5,0.4,10.9,0.6,16.6c0.1,2.7,0.1,5.3,0.2,8
				c2.1,2.6,6.6,8,11.1,14c0-0.8,0-1.6,0.1-2.4c0.2-6.1-0.6-12.1-1.3-18.1c-0.6-6.1-1.4-12.1-2.2-18c-0.8-5.6-2.6-11.2-2.8-17
				C74,80,74.2,74.4,73.6,68.7c0.4-0.4,0.9-0.7,1.5-1.1c1.9-1.3,4.2-2.7,6.1-4.3c-0.1,2.7-0.1,5.5-0.1,8.3c0,4.8,0,9.3,0.2,14
				c0.2,4.9,0.9,9.6,0.7,14.3c0,4.7,0,9.3,0,13.8c-0.2,2.6-0.2,4.9-0.2,7.5c0.2,1.5,0.7,11.6,4,10.1c0.9-0.5,1.1-1.8,1.3-2.9
				c3-18.2,5.2-36.8,5.7-55.3c4-5.7,6.5-12.1,10.5-17.8c2-2.8,4-5.7,6-8.7c0.3,1,0.5,2,0.7,3c0.1,0.7,0.2,1.5,0.3,2.2
				c0.1,1.2,0.2,2.4,0.4,3.6c0.1,1,0.2,2,0.3,3c0.1,4.2,0.2,8.3,0.2,12.4c0,4.3,0.3,8.6-0.5,12.8c-0.2,1.4-0.4,2.8-0.6,4.1
				c-0.2,1,0.1,1.8,0.8,2.4c0.5,0.5,1.2,0.8,1.9,0.5c0.2-0.1,0.4-0.1,0.6-0.2c0.5-0.2,0.9-0.6,1-1.2c0.1-0.5,0.1-0.9,0.1-1.4
				c0-1.3-0.2-2.5-0.4-3.8c-0.3-1.6-0.6-3.2-0.5-4.9c0.1-0.8,0-1.7,0-2.5c0-7.3,0-14.7,0-22.4c0-1.9,0.3-3.9,0.4-5.8
				c0-0.1,0-0.2,0-0.2c0.2-1.4,0.4-2.7,0.6-4.1c0.2-1.5,0.3-3,0.4-4.5c0.1-0.8,0.2-1.5,0.4-2.3c1.5-2.5,3.2-5.1,4.3-7.8
				c0.5-1.5,1.1-3.1,1.5-4.6c0.1-0.5,0.2-1,0.3-1.5c2.2-0.8,4.5-1.6,6.7-2.4c0.6,9.3,1,18.7,1.6,28c2.4,36.4,0.2,73.1,1.2,109.4
				c0,1,0.1,2,0.1,3c0.7,0,1.4,0.5,1.4,1.4c-0.3,4.2-0.2,8.4,0.1,12.7c0.2,1,0.4,2.1,0.7,3.1s0.7,2.1,1.4,2.7
				c1-8.9,1.9-17.8,2.9-26.7c0.4,0.9,0.7,1.4,0.8,0.6c1.6-16.1,0.8-34,0.5-51.3c0-0.2,0-0.5,0-0.7c0-1.1,0-2.1,0-3.2
				c0-0.4,0-0.8,0-1.2c0-1,0-1.9,0-2.9c0-0.5,0-0.9,0-1.4c0-1,0-1.9,0-2.9c0-0.4,0-0.9,0-1.3c0-1.4,0-2.7,0.1-4.1
				c0.1-3.4,0.1-7,0.2-10.4c0.1-9.8,0.4-19.9,0.5-29.8c0.2-9.6,1.3-19.3,1-29C146.6,14.8,152.5,11.8,158.2,8.5z M23.5,51.4
				c0,0-0.6-11.5-0.1-17.4c0.1-0.6,0.1-1.4,0.8-2c0.5-0.4,1.1-0.8,1.8-1c3.1-1.3,6.2-2.7,9.1-4.2c3.5-1.8,7.9-1.9,6.9,2.5
				c-0.5,1.8-2,3.4-3.1,4.8c-0.9,1.1-1.7,2.1-2.5,3.2c-1.6,2.2-3.1,4.4-4.9,6.3C29.4,46.2,23.5,51.4,23.5,51.4z M42.1,82.3
				c1.6-0.6,3.1-1.3,4.5-2.1c0-0.2,0.2-0.2,0.2-0.2c-0.2,2.8-0.2,5.6-0.4,8.1c0,0.1,0,0.3,0,0.4C45.1,86.5,43.6,84.4,42.1,82.3z
				 M60.9,62.5C60.4,63,60,63,59.8,63c-0.2-0.2-0.2-0.7-0.3-1.4c0.4-2.4,0.8-4.6,0.6-6.9c-0.1-1.1-0.5-2.3-0.4-3.2
				c-0.1-0.8,0.1-1.6,0-2.4c0.5-3.5,1.1-6.8,1.8-10.2c1,3.5,0.6,7.3,0.9,11.2c0,1.8,0.5,3.6,0.6,5.4c-0.1,1.7,0.2,3.2,0.9,4.7
				c0,0.2,0,0.3,0,0.3S61.2,62.3,60.9,62.5z M105.4,31.5c-0.2,0.2-0.2,0.6-0.4,0.8c-0.9,1.2-2,2.4-2.9,3.9s-1.5,3.5-2.2,5.2
				c-1.8,3.6-5.1,6.2-6,10.3c0.5-5.6,0.9-11.4,0.5-16.9c0-1.3-1.7-15.3-2.2-15c2.4-0.8,4.7-1.5,6.9-2.2c2.2-0.6,4.6-1.2,6.4,0.3
				c1.3,1.1,1.8,3,2,4.8C107.9,25.6,107,28.9,105.4,31.5z M264.2,54c-0.7-1.5-2.2-2.8-4.2-3.1c-1.5-0.2-2.9,0-4.4,0.2
				c-3.5,0.7-7,1.4-10.5,2.6c-4,1.3-4.9,0.3-2.4-2.6c3.5-4.1,6.6-7.7,9.4-11.3c0.9,0.2,1.1,1.1,1.1,1.7c-0.1,1.3,0,2.9,0.6,4.4
				c0.2,0.6,0.6,1.2,0.7,1.8c0.2,0.1,0.2,0.3,0.4,0.4c0.2,0.1,0.4,0.1,0.6,0.1c3.9-0.5,4.1-5.5,4.4-7.1c0.6-3.1,0.6-6.3-0.2-10.5
				c0-0.7-0.2-1.6-0.9-2.3c-0.9-1.1-2.4-1.4-3.7-1.3s-2.4,0.6-3.5,1.1c-6.3,3.1-10.9,7-13.8,11.7c-0.9,1.3-1.7,2.7-2.6,4.2
				c-2.4,3.8-6.1,7.5-7.7,13.1c-0.9,3.3-3.5,11,0.7,13.5c0.4,0.3,0.9,0.5,1.7,0.5c7.4,0.7,11.4-6.3,17.7-8.9c0.9-0.5,2-0.7,2.9-0.5
				c4.2,1.4,0.2,16.2-0.6,18.9c-2.4,7.9-5.3,15.6-8,23.3c-2.5-2.6-4.8-5.1-7-7.8c-2.4-2.6-4.6-5.2-6.6-8.2c-2-2.6-4.2-5.4-6.3-8.3
				c-3.1-4.5-6.1-9.5-9-14.8c-0.6-1.1-1.1-2-1.8-2.8c1.5-2.6,2.8-4.8,4.4-6.8c3.9-4.7,7.9-8.9,11.6-12.7c1.7-1.7,3.5-3.4,4.8-5.1
				c0.6-0.9,1.1-1.9,1.5-2.8c0.9-2.4,0.2-5.5-1.5-8.4c-0.2-0.5-0.6-0.9-0.7-1.2c-5.9-8.5-16.4-10-25.8-9.8c-7,0.1-14.4,0.5-20.6,4.1
				c-0.1,0-0.2,0.1-0.2,0.1c-2.1-5.2-5.8-9.3-12-9.9c-0.6,0-1.1,0-1.7,0c-5.5-1.8-12.1-0.1-16.4,3.4c-3.1,2.5-4.6,7-5.3,11.3
				c-0.9,5.4-1.5,11-1.4,16.4c0,5.4,0.9,10.9,1,16.3c0,6,0,11.9,0.2,17.5c0.4,10.9,1.6,22.4,3.9,33c0.4,2.1,1,4.2,2,6.1
				c0,1.5-0.6,3.7-0.4,4.7c0.1,0.9,0.3,1.9,0.6,2.7c0.5,1.3,1.7,2.2,3.1,2.1c0.3,0,0.6-0.2,0.9-0.2c0.6-0.1,1.1-0.5,1.6-0.8
				c0.6-0.5,1.2-1,1.9-1.5c0.1-0.1,0.3-0.2,0.4-0.3c0.6,0.1,1.3,0.1,2,0.1c0.3,0.2,0.6,0.4,0.8,0.7c0.6,0.8,0.7,1.8,0.9,2.7
				c0.2,1.1,0.1,2.2,0.2,3.2c0.1,1.3-0.1,2.5,0.2,3.8c0.1,0.7,0.1,1.4,0.1,2.1c0,1,0,1.9,0,2.9c0,0.1,0,0.2,0,0.2
				c0.2,0.5,0.2,1,0,1.5c0,0.1,0,0.3,0,0.4c0,0.3,0,0.5,0,0.8c-0.1,1.4,0,2.9-0.4,4.3c0,0.1,0,0.3,0,0.4c-0.1,1.2-0.3,2.4-0.4,3.7
				c0,0.1,0,0.2,0,0.2c-0.1,0.5-0.2,1.1-0.2,1.6c0,1,0,1.9,0,2.9c0,0.9,0.4,1.5,1,2c0.5,0.4,1,0.7,1.6,0.6c0.5-0.1,1-0.3,1.4-0.6
				c0.5-0.5,0.8-1.1,1-1.8c0.2-0.8,0.3-1.6,0.2-2.5c-0.2-1.4-0.5-2.7-0.5-4.1c0-0.1,0-0.2,0-0.2c-0.1-1-0.2-1.9-0.3-2.9
				c-0.1-0.7-0.1-1.4-0.1-2c0-0.8-0.1-1.5-0.1-2.3c0-0.5,0-1-0.1-1.5c0-0.1,0-0.2,0-0.4c0.2-0.7,0.2-1.4,0.1-2.1
				c0-0.3-0.1-0.6,0-0.8c0.2-0.4,0.1-0.9,0.2-1.3c0-0.6,0.1-1.2,0-1.8c0-0.2,0-0.4,0.1-0.5c0-0.1,0-0.3,0-0.4c0-0.5,0-1,0-1.6
				c0.1-1.2,0.1-2.3,0.2-3.5c0.1-0.9,0.2-1.8,0.4-2.7v-0.1c0.2-0.7,0.3-1.4,0.5-2.1c0.1-0.6,0.2-1.2,0.4-1.7
				c0.2-0.6,0.4-1.2,0.7-1.8c0.6-0.7,1.1-1.5,1.5-2.4l0.1-0.1l0,0c0.8-1.5,1.4-3.1,1.8-4.6c1.3-4.7,2.6-9.6,3.9-14.3
				c5.2-19.9,8.2-39.5,7.5-60c-0.1-3.7-0.6-8.1-1.8-12.2c2.8,0.6,12.2,1.8,12.4,1.2c-0.4,3-1.5,5.8-1.7,8.8
				c-0.2,4.2-0.6,8.3-1.3,12.6c-1.1,8.3-1.7,17.4-1.7,26.3c0,4.6,0.1,9.3,0.2,13.8c0.2,9.6,0.5,20.7,3.1,30.1c0.2,0.7,0.4,1.4,0.9,2
				c0.6,0.5,1.3,0.7,2,0.4c0.7-0.5,1.1-1.5,1.3-2.2c1.8-5.5,2.4-10.8,2.4-16.1c0.2-4.6,0.9-8.9,1.1-13.5c0.2-2.2,0.4-4.4,0.4-6.7
				c1.2,1.5,2.3,2.8,3.4,4.2c0.6,1.7,1,3.5,1,5.2c0,2.5,1.8,2.7,3.7,2.2c0.6,0.9,1.1,1.9,1.8,2.8c5.8,7.7,15.2,13,22.4,18.6
				c0.6,0.4,1.1,0.9,1.7,1.4c-0.9,2.9-1.8,5.9-2.6,8.9c0,0.5-0.2,1.1,0,1.5c0.6,0.9,2.1,0.9,3.1,0.3c1.1-0.6,1.8-1.5,2.4-2.5
				c0.7-1.2,1.4-2.5,2.1-3.7c2.5,2.2,5.1,4.1,7.8,4.9c9.8,2.9-1.7-9.9-3.3-11.8c-0.2-0.2-0.4-0.4-0.6-0.6c3.5-7,6.7-14.1,10-21
				c4.6-9.4,6.8-19.7,7.2-29.9C265,57.4,265,55.4,264.2,54z M171.2,71.4c-0.7,7-2.6,13.9-3.1,20.7c-0.2,2.4,1.5,13-2.4,13
				c-1.5,0-2.3-1.9-2.6-3.3c-5.2-23.6-4.2-47,1.1-71.3c0.4-1.6,0.7-3.3,1.3-4.9c0.2-0.7,0.6-1.5,1.1-2c1.1-1.3,3.5-0.5,4.6,1
				c0.9,1.7,1.1,3.7,1.3,5.5C173.2,43.9,172.6,57.7,171.2,71.4z M206,51.2c0.6-5.2,0.9-10,0.6-15c0-1.1-1.7-13.6-2.2-13.6
				c2.4,0,4.8,0.2,7,0.3c2.2,0.2,4.6,0.4,6.4,2.2c1.3,1.2,1.8,2.9,2,4.4c0.3,2.4-0.6,4.7-2.2,6.3c-0.2,0.1-0.2,0.4-0.4,0.5
				c-0.9,0.7-2,1.5-2.9,2.4c-0.9,1.2-1.5,2.7-2.2,3.9C210.3,45.5,206.9,47.6,206,51.2z"/>
		</g>
	</g>
</g>
<g class="st0">
	<g class="st1">
		<path class="st2" d="M147,108.7c-2.1,23.1-4.1,46.3-2.9,69.4c1.9-11.5,3.8-23,5.7-34.6c1.1-6.7,0.8-13.4,0.8-20.1
			c0-11-3.3-10-2.7-12.7"/>
	</g>
	<g class="st1">
		<path class="st2" d="M124.6,169.3c-0.5-13.8-0.9-27.6-1.4-41.4c-0.3-8-0.5-13.8-2.6-22.4c-2.8,8.3-2.9,16.1-3.1,25.8
			c-0.2,9.5,1.7,19.4,3.7,28.5c1.2,5.5,2.6,11.1,4,16.5c0.7-4.9,0.1-10-1.6-14.6"/>
	</g>
	<g class="st1">
		<path class="st2" d="M158.2,8.5c0.7-0.3,8.7-4.2,6.1-6c0,0,0,0-0.2,0c-1.1-0.6-3.9-0.4-5-0.2c-2.4,0.4-5,1.6-7.4,2
			c-4.8,1.2-9.8,1.9-14.4,3.1c-5.1,1.3-10.3,3-15.3,5.2c-0.8,0.3-1.7,0.7-2.5,1.1c-0.2-0.4-0.5-0.8-0.6-1.1
			c-6.2-8.9-17.7-5.2-25.6-1.7c-6.8,3-16.6,7-23.1,12.2c-0.4,0.2-0.8,0.7-0.9,1c-0.2,0.7,0.5,1.3,1.1,1.3c1.2,0.3,14.6-2.2,14.8-2.9
			c-0.4,3.3-1.6,6.6-1.7,9.8c-0.1,4.4-0.4,9-1.1,13.3c-0.4,3.8-0.7,7.6-0.8,11.4c-1.9,0.7-3.6,1.5-5.7,1.9c-0.7,0.2-1.5,0.2-2,0.2
			c0-2.6-0.7-5.4-1-7.9c-0.7-5.6-1.8-10.8-2.6-16.2c-0.4-2.6-0.8-5.2-1.3-7.9c-0.6-2.9-0.8-7.3-4-8.8c-1.4-0.7-3.6-0.5-4.6,0.7
			c-0.5,0.5-0.9,1.2-1.2,1.8c-1,1.9-1.8,3.8-2.8,5.6c-0.5,0.9-1,1.8-1.1,2.6c-0.3,1-0.4,1.9-0.5,2.9c-0.3,3.2-1.1,6.5-1.9,9.7
			c-0.7,2.6-0.8,5.2-1,7.8c-0.8,1.6-1.2,3.1-1.6,4.7c-0.9,3.4-0.7,6.8-1.3,10.8c-0.5,3.2-0.2,6.5-2.8,8.8c-0.9,1-2.4,1.7-3.5,2.3
			c-1.3,0.7-2.5,1.5-3.6,2.3c-1-1.8-1.7-3.6-2.7-5.5c-2.2-4.3-4.6-8.7-5.2-13.2c1.2-1.9,2.5-3.7,3.4-5.5c3-3.6,6-7.2,8.7-11
			c1.4-2.1,3.1-4.3,4.1-6.6c0.2-0.5,0.3-0.9,0.5-1.4c3.1-4.2,8.4-11.3,6.3-16.2c-0.2-0.8-0.6-1.3-1.2-1.7c-4.4-3.5-14.2,0.9-19,2.6
			c-7.3,2.6-14.3,5.6-21.4,8.5c-0.7,0.3-1.5,0.7-2.2,1.2c-2.7,1-5.4,2.1-8,3.4C2,33,1.7,33.2,1.5,33.5c-0.2,0.4,0.4,1,0.9,1.1
			c0.6,0.1,4.9,0.1,8.2-0.2c0.4,1.2,0.3,2.5,0.2,3.7c-0.7,4.9-1,10-0.9,16.7c0.1,12.9-4,27.5,1.7,40c0.4,3.7,1.1,7.6,2.4,12
			c0.2,0.7,0.4,1.3,0.9,2c0.6,0.5,1.3,1,2,0.9c0.7-0.3,1.1-1,1.3-1.7c1.8-4.6,2.4-9,2.4-13.5c0.2-3.9,0.9-7.4,1.1-11.3
			c0.2-1.9,0.4-3.8,0.4-5.8c0.2-0.5,0.3-0.7,0.6-1.2c0.9,1,1.8,1.9,2.6,2.7c1.8,1.7,3.2,3.5,4.7,5.5c0,0,0.1,0.1,0.1,0.2
			c-0.4,0.4-0.7,0.9-0.8,1.4c0.6,0.3,1.2,0.1,1.7-0.2c1.1,1.5,2.2,3,3.2,4.5c3.2,4.2,6.3,8.4,9.4,12.7c-0.6,2.4-1.2,4.8-1.7,7.2
			c-0.4,1.6,2,2.4,2.6,0.9s1.2-3.1,1.7-4.6c2.8,3.9,5.6,7.8,8.4,11.7c1.3,1.8,2.5,3.5,3.8,5.1c1.8,2.6,3.8,5.1,5.5,7.5
			c1.6,2.1,3.9,5,6.3,8.1c0.3,2.4,0.7,4.8,1,7.2c0.4,3.2,0.6,6.1,1.7,9c0.9,2.1,4.4,3.2,5.5,0.6c0.6-1.5,1.1-3,1.4-4.7
			c1.4,1.7,2.7,3.3,3.7,4.5c0.4,0.5,0.9,0.9,1.4,1.3c0.7,0.2,1.4,0.2,1.8-0.3c0.7-0.9-0.2-2-0.9-2.9c-1.1-1.1-2-2.2-2.9-3.5
			c-0.9-1.5-6.7-10.1-7.6-11.4c-0.7-1.3-1.8-2.7-2.9-4.1c-9-11.9-15-26.1-22.3-39.4c0.6-1.7,1.3-3.3,2-5c1.3-3.5,2.9-6.9,4-10.6
			c0.6-1.3,0.9-2.7,1.1-4.1c0.4-0.2,0.6-0.2,0.7-0.2c0.9-0.2,1.7-0.4,2.5-0.8c0.1,0.2,0.1,0.3,0.1,0.5c0.1,1-0.2,1.9-0.3,2.8v0.1
			c-0.1,0.6-0.2,1.2-0.3,1.8c0,0.1,0,0.3,0,0.5c0.1,0.5,0.2,0.9,0.8,1.2c0.7,0.4,1.6-0.1,1.7-0.8c0.1-1,0.1-2-0.2-3
			c-0.1-0.5-0.2-0.9-0.3-1.4c0-0.8-0.1-1.5,0-2.3c0.8-0.4,1.5-0.7,2.4-1.1c0.6-0.2,1.1-0.5,1.7-0.7c0.6,4.3,1.3,8.6,2,12.8
			c0.9,5.6,0.2,11.4,0.4,17.2c0.2,5.5,0.4,10.9,0.6,16.6c0.1,2.7,0.1,5.3,0.2,8c2.1,2.6,6.6,8,11.1,14c0-0.8,0-1.6,0.1-2.4
			c0.2-6.1-0.6-12.1-1.3-18.1c-0.6-6.1-1.4-12.1-2.2-18c-0.8-5.6-2.6-11.2-2.8-17C74,80,74.2,74.4,73.6,68.7
			c0.4-0.4,0.9-0.7,1.5-1.1c1.9-1.3,4.2-2.7,6.1-4.3c-0.1,2.7-0.1,5.5-0.1,8.3c0,4.8,0,9.3,0.2,14c0.2,4.9,0.9,9.6,0.7,14.3
			c0,4.7,0,9.3,0,13.8c-0.2,2.6-0.2,4.9-0.2,7.5c0.2,1.5,0.7,11.6,4,10.1c0.9-0.5,1.1-1.8,1.3-2.9c3-18.2,5.2-36.8,5.7-55.3
			c4-5.7,6.5-12.1,10.5-17.8c2-2.8,4-5.7,6-8.7c0.3,1,0.5,2,0.7,3c0.1,0.7,0.2,1.5,0.3,2.2c0.1,1.2,0.2,2.4,0.4,3.6
			c0.1,1,0.2,2,0.3,3c0.1,4.2,0.2,8.3,0.2,12.4c0,4.3,0.3,8.6-0.5,12.8c-0.2,1.4-0.4,2.8-0.6,4.1c-0.2,1,0.1,1.8,0.8,2.4
			c0.5,0.5,1.2,0.8,1.9,0.5c0.2-0.1,0.4-0.1,0.6-0.2c0.5-0.2,0.9-0.6,1-1.2c0.1-0.5,0.1-0.9,0.1-1.4c0-1.3-0.2-2.5-0.4-3.8
			c-0.3-1.6-0.6-3.2-0.5-4.9c0.1-0.8,0-1.7,0-2.5c0-7.3,0-14.7,0-22.4c0-1.9,0.3-3.9,0.4-5.8c0-0.1,0-0.2,0-0.2
			c0.2-1.4,0.4-2.7,0.6-4.1c0.2-1.5,0.3-3,0.4-4.5c0.1-0.8,0.2-1.5,0.4-2.3c1.5-2.5,3.2-5.1,4.3-7.8c0.5-1.5,1.1-3.1,1.5-4.6
			c0.1-0.5,0.2-1,0.3-1.5c2.2-0.8,4.5-1.6,6.7-2.4c0.6,9.3,1,18.7,1.6,28c2.4,36.4,0.2,73.1,1.2,109.4c0,1,0.1,2,0.1,3
			c0.7,0,1.4,0.5,1.4,1.4c-0.3,4.2-0.2,8.4,0.1,12.7c0.2,1,0.4,2.1,0.7,3.1s0.7,2.1,1.4,2.7c1-8.9,1.9-17.8,2.9-26.7
			c0.4,0.9,0.7,1.4,0.8,0.6c1.6-16.1,0.8-34,0.5-51.3c0-0.2,0-0.5,0-0.7c0-1.1,0-2.1,0-3.2c0-0.4,0-0.8,0-1.2c0-1,0-1.9,0-2.9
			c0-0.5,0-0.9,0-1.4c0-1,0-1.9,0-2.9c0-0.4,0-0.9,0-1.3c0-1.4,0-2.7,0.1-4.1c0.1-3.4,0.1-7,0.2-10.4c0.1-9.8,0.4-19.9,0.5-29.8
			c0.2-9.6,1.3-19.3,1-29C146.6,14.8,152.5,11.8,158.2,8.5z M23.5,51.4c0,0-0.6-11.5-0.1-17.4c0.1-0.6,0.1-1.4,0.8-2
			c0.5-0.4,1.1-0.8,1.8-1c3.1-1.3,6.2-2.7,9.1-4.2c3.5-1.8,7.9-1.9,6.9,2.5c-0.5,1.8-2,3.4-3.1,4.8c-0.9,1.1-1.7,2.1-2.5,3.2
			c-1.6,2.2-3.1,4.4-4.9,6.3C29.4,46.2,23.5,51.4,23.5,51.4z M42.1,82.3c1.6-0.6,3.1-1.3,4.5-2.1c0-0.2,0.2-0.2,0.2-0.2
			c-0.2,2.8-0.2,5.6-0.4,8.1c0,0.1,0,0.3,0,0.4C45.1,86.5,43.6,84.4,42.1,82.3z M60.9,62.5C60.4,63,60,63,59.8,63
			c-0.2-0.2-0.2-0.7-0.3-1.4c0.4-2.4,0.8-4.6,0.6-6.9c-0.1-1.1-0.5-2.3-0.4-3.2c-0.1-0.8,0.1-1.6,0-2.4c0.5-3.5,1.1-6.8,1.8-10.2
			c1,3.5,0.6,7.3,0.9,11.2c0,1.8,0.5,3.6,0.6,5.4c-0.1,1.7,0.2,3.2,0.9,4.7c0,0.2,0,0.3,0,0.3S61.2,62.3,60.9,62.5z M105.4,31.5
			c-0.2,0.2-0.2,0.6-0.4,0.8c-0.9,1.2-2,2.4-2.9,3.9s-1.5,3.5-2.2,5.2c-1.8,3.6-5.1,6.2-6,10.3c0.5-5.6,0.9-11.4,0.5-16.9
			c0-1.3-1.7-15.3-2.2-15c2.4-0.8,4.7-1.5,6.9-2.2c2.2-0.6,4.6-1.2,6.4,0.3c1.3,1.1,1.8,3,2,4.8C107.9,25.6,107,28.9,105.4,31.5z
			 M264.2,54c-0.7-1.5-2.2-2.8-4.2-3.1c-1.5-0.2-2.9,0-4.4,0.2c-3.5,0.7-7,1.4-10.5,2.6c-4,1.3-4.9,0.3-2.4-2.6
			c3.5-4.1,6.6-7.7,9.4-11.3c0.9,0.2,1.1,1.1,1.1,1.7c-0.1,1.3,0,2.9,0.6,4.4c0.2,0.6,0.6,1.2,0.7,1.8c0.2,0.1,0.2,0.3,0.4,0.4
			c0.2,0.1,0.4,0.1,0.6,0.1c3.9-0.5,4.1-5.5,4.4-7.1c0.6-3.1,0.6-6.3-0.2-10.5c0-0.7-0.2-1.6-0.9-2.3c-0.9-1.1-2.4-1.4-3.7-1.3
			s-2.4,0.6-3.5,1.1c-6.3,3.1-10.9,7-13.8,11.7c-0.9,1.3-1.7,2.7-2.6,4.2c-2.4,3.8-6.1,7.5-7.7,13.1c-0.9,3.3-3.5,11,0.7,13.5
			c0.4,0.3,0.9,0.5,1.7,0.5c7.4,0.7,11.4-6.3,17.7-8.9c0.9-0.5,2-0.7,2.9-0.5c4.2,1.4,0.2,16.2-0.6,18.9c-2.4,7.9-5.3,15.6-8,23.3
			c-2.5-2.6-4.8-5.1-7-7.8c-2.4-2.6-4.6-5.2-6.6-8.2c-2-2.6-4.2-5.4-6.3-8.3c-3.1-4.5-6.1-9.5-9-14.8c-0.6-1.1-1.1-2-1.8-2.8
			c1.5-2.6,2.8-4.8,4.4-6.8c3.9-4.7,7.9-8.9,11.6-12.7c1.7-1.7,3.5-3.4,4.8-5.1c0.6-0.9,1.1-1.9,1.5-2.8c0.9-2.4,0.2-5.5-1.5-8.4
			c-0.2-0.5-0.6-0.9-0.7-1.2c-5.9-8.5-16.4-10-25.8-9.8c-7,0.1-14.4,0.5-20.6,4.1c-0.1,0-0.2,0.1-0.2,0.1c-2.1-5.2-5.8-9.3-12-9.9
			c-0.6,0-1.1,0-1.7,0c-5.5-1.8-12.1-0.1-16.4,3.4c-3.1,2.5-4.6,7-5.3,11.3c-0.9,5.4-1.5,11-1.4,16.4c0,5.4,0.9,10.9,1,16.3
			c0,6,0,11.9,0.2,17.5c0.4,10.9,1.6,22.4,3.9,33c0.4,2.1,1,4.2,2,6.1c0,1.5-0.6,3.7-0.4,4.7c0.1,0.9,0.3,1.9,0.6,2.7
			c0.5,1.3,1.7,2.2,3.1,2.1c0.3,0,0.6-0.2,0.9-0.2c0.6-0.1,1.1-0.5,1.6-0.8c0.6-0.5,1.2-1,1.9-1.5c0.1-0.1,0.3-0.2,0.4-0.3
			c0.6,0.1,1.3,0.1,2,0.1c0.3,0.2,0.6,0.4,0.8,0.7c0.6,0.8,0.7,1.8,0.9,2.7c0.2,1.1,0.1,2.2,0.2,3.2c0.1,1.3-0.1,2.5,0.2,3.8
			c0.1,0.7,0.1,1.4,0.1,2.1c0,1,0,1.9,0,2.9c0,0.1,0,0.2,0,0.2c0.2,0.5,0.2,1,0,1.5c0,0.1,0,0.3,0,0.4c0,0.3,0,0.5,0,0.8
			c-0.1,1.4,0,2.9-0.4,4.3c0,0.1,0,0.3,0,0.4c-0.1,1.2-0.3,2.4-0.4,3.7c0,0.1,0,0.2,0,0.2c-0.1,0.5-0.2,1.1-0.2,1.6c0,1,0,1.9,0,2.9
			c0,0.9,0.4,1.5,1,2c0.5,0.4,1,0.7,1.6,0.6c0.5-0.1,1-0.3,1.4-0.6c0.5-0.5,0.8-1.1,1-1.8c0.2-0.8,0.3-1.6,0.2-2.5
			c-0.2-1.4-0.5-2.7-0.5-4.1c0-0.1,0-0.2,0-0.2c-0.1-1-0.2-1.9-0.3-2.9c-0.1-0.7-0.1-1.4-0.1-2c0-0.8-0.1-1.5-0.1-2.3
			c0-0.5,0-1-0.1-1.5c0-0.1,0-0.2,0-0.4c0.2-0.7,0.2-1.4,0.1-2.1c0-0.3-0.1-0.6,0-0.8c0.2-0.4,0.1-0.9,0.2-1.3c0-0.6,0.1-1.2,0-1.8
			c0-0.2,0-0.4,0.1-0.5c0-0.1,0-0.3,0-0.4c0-0.5,0-1,0-1.6c0.1-1.2,0.1-2.3,0.2-3.5c0.1-0.9,0.2-1.8,0.4-2.7v-0.1
			c0.2-0.7,0.3-1.4,0.5-2.1c0.1-0.6,0.2-1.2,0.4-1.7c0.2-0.6,0.4-1.2,0.7-1.8c0.6-0.7,1.1-1.5,1.5-2.4l0.1-0.1l0,0
			c0.8-1.5,1.4-3.1,1.8-4.6c1.3-4.7,2.6-9.6,3.9-14.3c5.2-19.9,8.2-39.5,7.5-60c-0.1-3.7-0.6-8.1-1.8-12.2
			c2.8,0.6,12.2,1.8,12.4,1.2c-0.4,3-1.5,5.8-1.7,8.8c-0.2,4.2-0.6,8.3-1.3,12.6c-1.1,8.3-1.7,17.4-1.7,26.3c0,4.6,0.1,9.3,0.2,13.8
			c0.2,9.6,0.5,20.7,3.1,30.1c0.2,0.7,0.4,1.4,0.9,2c0.6,0.5,1.3,0.7,2,0.4c0.7-0.5,1.1-1.5,1.3-2.2c1.8-5.5,2.4-10.8,2.4-16.1
			c0.2-4.6,0.9-8.9,1.1-13.5c0.2-2.2,0.4-4.4,0.4-6.7c1.2,1.5,2.3,2.8,3.4,4.2c0.6,1.7,1,3.5,1,5.2c0,2.5,1.8,2.7,3.7,2.2
			c0.6,0.9,1.1,1.9,1.8,2.8c5.8,7.7,15.2,13,22.4,18.6c0.6,0.4,1.1,0.9,1.7,1.4c-0.9,2.9-1.8,5.9-2.6,8.9c0,0.5-0.2,1.1,0,1.5
			c0.6,0.9,2.1,0.9,3.1,0.3c1.1-0.6,1.8-1.5,2.4-2.5c0.7-1.2,1.4-2.5,2.1-3.7c2.5,2.2,5.1,4.1,7.8,4.9c9.8,2.9-1.7-9.9-3.3-11.8
			c-0.2-0.2-0.4-0.4-0.6-0.6c3.5-7,6.7-14.1,10-21c4.6-9.4,6.8-19.7,7.2-29.9C265,57.4,265,55.4,264.2,54z M171.2,71.4
			c-0.7,7-2.6,13.9-3.1,20.7c-0.2,2.4,1.5,13-2.4,13c-1.5,0-2.3-1.9-2.6-3.3c-5.2-23.6-4.2-47,1.1-71.3c0.4-1.6,0.7-3.3,1.3-4.9
			c0.2-0.7,0.6-1.5,1.1-2c1.1-1.3,3.5-0.5,4.6,1c0.9,1.7,1.1,3.7,1.3,5.5C173.2,43.9,172.6,57.7,171.2,71.4z M206,51.2
			c0.6-5.2,0.9-10,0.6-15c0-1.1-1.7-13.6-2.2-13.6c2.4,0,4.8,0.2,7,0.3c2.2,0.2,4.6,0.4,6.4,2.2c1.3,1.2,1.8,2.9,2,4.4
			c0.3,2.4-0.6,4.7-2.2,6.3c-0.2,0.1-0.2,0.4-0.4,0.5c-0.9,0.7-2,1.5-2.9,2.4c-0.9,1.2-1.5,2.7-2.2,3.9
			C210.3,45.5,206.9,47.6,206,51.2z"/>
	</g>
</g>
<g class="st0">
	<g class="st1">
		<path class="st2" d="M158.2,8.5c0.7-0.3,8.7-4.2,6.1-6c0,0,0,0-0.2,0c-1.1-0.6-3.9-0.4-5-0.2c-2.4,0.4-5,1.6-7.4,2
			c-4.8,1.2-9.8,1.9-14.4,3.1c-5.1,1.3-10.3,3-15.3,5.2c-0.8,0.3-1.7,0.7-2.5,1.1c-0.2-0.4-0.5-0.8-0.6-1.1
			c-6.2-8.9-17.7-5.2-25.6-1.7c-6.8,3-16.6,7-23.1,12.2c-0.4,0.2-0.8,0.7-0.9,1c-0.2,0.7,0.5,1.3,1.1,1.3c1.2,0.3,14.6-2.2,14.8-2.9
			c-0.4,3.3-1.6,6.6-1.7,9.8c-0.1,4.4-0.4,9-1.1,13.3c-0.4,3.8-0.7,7.6-0.8,11.4c-1.9,0.7-3.6,1.5-5.7,1.9c-0.7,0.2-1.5,0.2-2,0.2
			c0-2.6-0.7-5.4-1-7.9c-0.7-5.6-1.8-10.8-2.6-16.2c-0.4-2.6-0.8-5.2-1.3-7.9c-0.6-2.9-0.8-7.3-4-8.8c-1.4-0.7-3.6-0.5-4.6,0.7
			c-0.5,0.5-0.9,1.2-1.2,1.8c-1,1.9-1.8,3.8-2.8,5.6c-0.5,0.9-1,1.8-1.1,2.6c-0.3,1-0.4,1.9-0.5,2.9c-0.3,3.2-1.1,6.5-1.9,9.7
			c-0.7,2.6-0.8,5.2-1,7.8c-0.8,1.6-1.2,3.1-1.6,4.7c-0.9,3.4-0.7,6.8-1.3,10.8c-0.5,3.2-0.2,6.5-2.8,8.8c-0.9,1-2.4,1.7-3.5,2.3
			c-1.3,0.7-2.5,1.5-3.6,2.3c-1-1.8-1.7-3.6-2.7-5.5c-2.2-4.3-4.6-8.7-5.2-13.2c1.2-1.9,2.5-3.7,3.4-5.5c3-3.6,6-7.2,8.7-11
			c1.4-2.1,3.1-4.3,4.1-6.6c0.2-0.5,0.3-0.9,0.5-1.4c3.1-4.2,8.4-11.3,6.3-16.2c-0.2-0.8-0.6-1.3-1.2-1.7c-4.4-3.5-14.2,0.9-19,2.6
			c-7.3,2.6-14.3,5.6-21.4,8.5c-0.7,0.3-1.5,0.7-2.2,1.2c-2.7,1-5.4,2.1-8,3.4C2,33,1.7,33.2,1.5,33.5c-0.2,0.4,0.4,1,0.9,1.1
			c0.6,0.1,4.9,0.1,8.2-0.2c0.4,1.2,0.3,2.5,0.2,3.7c-0.7,4.9-1,10-0.9,16.7c0.1,12.9-4,27.5,1.7,40c0.4,3.7,1.1,7.6,2.4,12
			c0.2,0.7,0.4,1.3,0.9,2c0.6,0.5,1.3,1,2,0.9c0.7-0.3,1.1-1,1.3-1.7c1.8-4.6,2.4-9,2.4-13.5c0.2-3.9,0.9-7.4,1.1-11.3
			c0.2-1.9,0.4-3.8,0.4-5.8c0.2-0.5,0.3-0.7,0.6-1.2c0.9,1,1.8,1.9,2.6,2.7c1.8,1.7,3.2,3.5,4.7,5.5c0,0,0.1,0.1,0.1,0.2
			c-0.4,0.4-0.7,0.9-0.8,1.4c0.6,0.3,1.2,0.1,1.7-0.2c1.1,1.5,2.2,3,3.2,4.5c3.2,4.2,6.3,8.4,9.4,12.7c-0.6,2.4-1.2,4.8-1.7,7.2
			c-0.4,1.6,2,2.4,2.6,0.9s1.2-3.1,1.7-4.6c2.8,3.9,5.6,7.8,8.4,11.7c1.3,1.8,2.5,3.5,3.8,5.1c1.8,2.6,3.8,5.1,5.5,7.5
			c1.6,2.1,3.9,5,6.3,8.1c0.3,2.4,0.7,4.8,1,7.2c0.4,3.2,0.6,6.1,1.7,9c0.9,2.1,4.4,3.2,5.5,0.6c0.6-1.5,1.1-3,1.4-4.7
			c1.4,1.7,2.7,3.3,3.7,4.5c0.4,0.5,0.9,0.9,1.4,1.3c0.7,0.2,1.4,0.2,1.8-0.3c0.7-0.9-0.2-2-0.9-2.9c-1.1-1.1-2-2.2-2.9-3.5
			c-0.9-1.5-6.7-10.1-7.6-11.4c-0.7-1.3-1.8-2.7-2.9-4.1c-9-11.9-15-26.1-22.3-39.4c0.6-1.7,1.3-3.3,2-5c1.3-3.5,2.9-6.9,4-10.6
			c0.6-1.3,0.9-2.7,1.1-4.1c0.4-0.2,0.6-0.2,0.7-0.2c0.9-0.2,1.7-0.4,2.5-0.8c0.1,0.2,0.1,0.3,0.1,0.5c0.1,1-0.2,1.9-0.3,2.8v0.1
			c-0.1,0.6-0.2,1.2-0.3,1.8c0,0.1,0,0.3,0,0.5c0.1,0.5,0.2,0.9,0.8,1.2c0.7,0.4,1.6-0.1,1.7-0.8c0.1-1,0.1-2-0.2-3
			c-0.1-0.5-0.2-0.9-0.3-1.4c0-0.8-0.1-1.5,0-2.3c0.8-0.4,1.5-0.7,2.4-1.1c0.6-0.2,1.1-0.5,1.7-0.7c0.6,4.3,1.3,8.6,2,12.8
			c0.9,5.6,0.2,11.4,0.4,17.2c0.2,5.5,0.4,10.9,0.6,16.6c0.1,2.7,0.1,5.3,0.2,8c2.1,2.6,6.6,8,11.1,14c0-0.8,0-1.6,0.1-2.4
			c0.2-6.1-0.6-12.1-1.3-18.1c-0.6-6.1-1.4-12.1-2.2-18c-0.8-5.6-2.6-11.2-2.8-17C74,80,74.2,74.4,73.6,68.7
			c0.4-0.4,0.9-0.7,1.5-1.1c1.9-1.3,4.2-2.7,6.1-4.3c-0.1,2.7-0.1,5.5-0.1,8.3c0,4.8,0,9.3,0.2,14c0.2,4.9,0.9,9.6,0.7,14.3
			c0,4.7,0,9.3,0,13.8c-0.2,2.6-0.2,4.9-0.2,7.5c0.2,1.5,0.7,11.6,4,10.1c0.9-0.5,1.1-1.8,1.3-2.9c3-18.2,5.2-36.8,5.7-55.3
			c4-5.7,6.5-12.1,10.5-17.8c2-2.8,4-5.7,6-8.7c0.3,1,0.5,2,0.7,3c0.1,0.7,0.2,1.5,0.3,2.2c0.1,1.2,0.2,2.4,0.4,3.6
			c0.1,1,0.2,2,0.3,3c0.1,4.2,0.2,8.3,0.2,12.4c0,4.3,0.3,8.6-0.5,12.8c-0.2,1.4-0.4,2.8-0.6,4.1c-0.2,1,0.1,1.8,0.8,2.4
			c0.5,0.5,1.2,0.8,1.9,0.5c0.2-0.1,0.4-0.1,0.6-0.2c0.5-0.2,0.9-0.6,1-1.2c0.1-0.5,0.1-0.9,0.1-1.4c0-1.3-0.2-2.5-0.4-3.8
			c-0.3-1.6-0.6-3.2-0.5-4.9c0.1-0.8,0-1.7,0-2.5c0-7.3,0-14.7,0-22.4c0-1.9,0.3-3.9,0.4-5.8c0-0.1,0-0.2,0-0.2
			c0.2-1.4,0.4-2.7,0.6-4.1c0.2-1.5,0.3-3,0.4-4.5c0.1-0.8,0.2-1.5,0.4-2.3c1.5-2.5,3.2-5.1,4.3-7.8c0.5-1.5,1.1-3.1,1.5-4.6
			c0.1-0.5,0.2-1,0.3-1.5c2.2-0.8,4.5-1.6,6.7-2.4c0.6,9.3,1,18.7,1.6,28c2.4,36.4,0.2,73.1,1.2,109.4c0,1,0.1,2,0.1,3
			c0.7,0,1.4,0.5,1.4,1.4c-0.3,4.2-0.2,8.4,0.1,12.7c0.2,1,0.4,2.1,0.7,3.1s0.7,2.1,1.4,2.7c1-8.9,1.9-17.8,2.9-26.7
			c0.4,0.9,0.7,1.4,0.8,0.6c1.6-16.1,0.8-34,0.5-51.3c0-0.2,0-0.5,0-0.7c0-1.1,0-2.1,0-3.2c0-0.4,0-0.8,0-1.2c0-1,0-1.9,0-2.9
			c0-0.5,0-0.9,0-1.4c0-1,0-1.9,0-2.9c0-0.4,0-0.9,0-1.3c0-1.4,0-2.7,0.1-4.1c0.1-3.4,0.1-7,0.2-10.4c0.1-9.8,0.4-19.9,0.5-29.8
			c0.2-9.6,1.3-19.3,1-29C146.6,14.8,152.5,11.8,158.2,8.5z M23.5,51.4c0,0-0.6-11.5-0.1-17.4c0.1-0.6,0.1-1.4,0.8-2
			c0.5-0.4,1.1-0.8,1.8-1c3.1-1.3,6.2-2.7,9.1-4.2c3.5-1.8,7.9-1.9,6.9,2.5c-0.5,1.8-2,3.4-3.1,4.8c-0.9,1.1-1.7,2.1-2.5,3.2
			c-1.6,2.2-3.1,4.4-4.9,6.3C29.4,46.2,23.5,51.4,23.5,51.4z M42.1,82.3c1.6-0.6,3.1-1.3,4.5-2.1c0-0.2,0.2-0.2,0.2-0.2
			c-0.2,2.8-0.2,5.6-0.4,8.1c0,0.1,0,0.3,0,0.4C45.1,86.5,43.6,84.4,42.1,82.3z M60.9,62.5C60.4,63,60,63,59.8,63
			c-0.2-0.2-0.2-0.7-0.3-1.4c0.4-2.4,0.8-4.6,0.6-6.9c-0.1-1.1-0.5-2.3-0.4-3.2c-0.1-0.8,0.1-1.6,0-2.4c0.5-3.5,1.1-6.8,1.8-10.2
			c1,3.5,0.6,7.3,0.9,11.2c0,1.8,0.5,3.6,0.6,5.4c-0.1,1.7,0.2,3.2,0.9,4.7c0,0.2,0,0.3,0,0.3S61.2,62.3,60.9,62.5z M105.4,31.5
			c-0.2,0.2-0.2,0.6-0.4,0.8c-0.9,1.2-2,2.4-2.9,3.9s-1.5,3.5-2.2,5.2c-1.8,3.6-5.1,6.2-6,10.3c0.5-5.6,0.9-11.4,0.5-16.9
			c0-1.3-1.7-15.3-2.2-15c2.4-0.8,4.7-1.5,6.9-2.2c2.2-0.6,4.6-1.2,6.4,0.3c1.3,1.1,1.8,3,2,4.8C107.9,25.6,107,28.9,105.4,31.5z
			 M264.2,54c-0.7-1.5-2.2-2.8-4.2-3.1c-1.5-0.2-2.9,0-4.4,0.2c-3.5,0.7-7,1.4-10.5,2.6c-4,1.3-4.9,0.3-2.4-2.6
			c3.5-4.1,6.6-7.7,9.4-11.3c0.9,0.2,1.1,1.1,1.1,1.7c-0.1,1.3,0,2.9,0.6,4.4c0.2,0.6,0.6,1.2,0.7,1.8c0.2,0.1,0.2,0.3,0.4,0.4
			c0.2,0.1,0.4,0.1,0.6,0.1c3.9-0.5,4.1-5.5,4.4-7.1c0.6-3.1,0.6-6.3-0.2-10.5c0-0.7-0.2-1.6-0.9-2.3c-0.9-1.1-2.4-1.4-3.7-1.3
			s-2.4,0.6-3.5,1.1c-6.3,3.1-10.9,7-13.8,11.7c-0.9,1.3-1.7,2.7-2.6,4.2c-2.4,3.8-6.1,7.5-7.7,13.1c-0.9,3.3-3.5,11,0.7,13.5
			c0.4,0.3,0.9,0.5,1.7,0.5c7.4,0.7,11.4-6.3,17.7-8.9c0.9-0.5,2-0.7,2.9-0.5c4.2,1.4,0.2,16.2-0.6,18.9c-2.4,7.9-5.3,15.6-8,23.3
			c-2.5-2.6-4.8-5.1-7-7.8c-2.4-2.6-4.6-5.2-6.6-8.2c-2-2.6-4.2-5.4-6.3-8.3c-3.1-4.5-6.1-9.5-9-14.8c-0.6-1.1-1.1-2-1.8-2.8
			c1.5-2.6,2.8-4.8,4.4-6.8c3.9-4.7,7.9-8.9,11.6-12.7c1.7-1.7,3.5-3.4,4.8-5.1c0.6-0.9,1.1-1.9,1.5-2.8c0.9-2.4,0.2-5.5-1.5-8.4
			c-0.2-0.5-0.6-0.9-0.7-1.2c-5.9-8.5-16.4-10-25.8-9.8c-7,0.1-14.4,0.5-20.6,4.1c-0.1,0-0.2,0.1-0.2,0.1c-2.1-5.2-5.8-9.3-12-9.9
			c-0.6,0-1.1,0-1.7,0c-5.5-1.8-12.1-0.1-16.4,3.4c-3.1,2.5-4.6,7-5.3,11.3c-0.9,5.4-1.5,11-1.4,16.4c0,5.4,0.9,10.9,1,16.3
			c0,6,0,11.9,0.2,17.5c0.4,10.9,1.6,22.4,3.9,33c0.4,2.1,1,4.2,2,6.1c0,1.5-0.6,3.7-0.4,4.7c0.1,0.9,0.3,1.9,0.6,2.7
			c0.5,1.3,1.7,2.2,3.1,2.1c0.3,0,0.6-0.2,0.9-0.2c0.6-0.1,1.1-0.5,1.6-0.8c0.6-0.5,1.2-1,1.9-1.5c0.1-0.1,0.3-0.2,0.4-0.3
			c0.6,0.1,1.3,0.1,2,0.1c0.3,0.2,0.6,0.4,0.8,0.7c0.6,0.8,0.7,1.8,0.9,2.7c0.2,1.1,0.1,2.2,0.2,3.2c0.1,1.3-0.1,2.5,0.2,3.8
			c0.1,0.7,0.1,1.4,0.1,2.1c0,1,0,1.9,0,2.9c0,0.1,0,0.2,0,0.2c0.2,0.5,0.2,1,0,1.5c0,0.1,0,0.3,0,0.4c0,0.3,0,0.5,0,0.8
			c-0.1,1.4,0,2.9-0.4,4.3c0,0.1,0,0.3,0,0.4c-0.1,1.2-0.3,2.4-0.4,3.7c0,0.1,0,0.2,0,0.2c-0.1,0.5-0.2,1.1-0.2,1.6c0,1,0,1.9,0,2.9
			c0,0.9,0.4,1.5,1,2c0.5,0.4,1,0.7,1.6,0.6c0.5-0.1,1-0.3,1.4-0.6c0.5-0.5,0.8-1.1,1-1.8c0.2-0.8,0.3-1.6,0.2-2.5
			c-0.2-1.4-0.5-2.7-0.5-4.1c0-0.1,0-0.2,0-0.2c-0.1-1-0.2-1.9-0.3-2.9c-0.1-0.7-0.1-1.4-0.1-2c0-0.8-0.1-1.5-0.1-2.3
			c0-0.5,0-1-0.1-1.5c0-0.1,0-0.2,0-0.4c0.2-0.7,0.2-1.4,0.1-2.1c0-0.3-0.1-0.6,0-0.8c0.2-0.4,0.1-0.9,0.2-1.3c0-0.6,0.1-1.2,0-1.8
			c0-0.2,0-0.4,0.1-0.5c0-0.1,0-0.3,0-0.4c0-0.5,0-1,0-1.6c0.1-1.2,0.1-2.3,0.2-3.5c0.1-0.9,0.2-1.8,0.4-2.7v-0.1
			c0.2-0.7,0.3-1.4,0.5-2.1c0.1-0.6,0.2-1.2,0.4-1.7c0.2-0.6,0.4-1.2,0.7-1.8c0.6-0.7,1.1-1.5,1.5-2.4l0.1-0.1l0,0
			c0.8-1.5,1.4-3.1,1.8-4.6c1.3-4.7,2.6-9.6,3.9-14.3c5.2-19.9,8.2-39.5,7.5-60c-0.1-3.7-0.6-8.1-1.8-12.2
			c2.8,0.6,12.2,1.8,12.4,1.2c-0.4,3-1.5,5.8-1.7,8.8c-0.2,4.2-0.6,8.3-1.3,12.6c-1.1,8.3-1.7,17.4-1.7,26.3c0,4.6,0.1,9.3,0.2,13.8
			c0.2,9.6,0.5,20.7,3.1,30.1c0.2,0.7,0.4,1.4,0.9,2c0.6,0.5,1.3,0.7,2,0.4c0.7-0.5,1.1-1.5,1.3-2.2c1.8-5.5,2.4-10.8,2.4-16.1
			c0.2-4.6,0.9-8.9,1.1-13.5c0.2-2.2,0.4-4.4,0.4-6.7c1.2,1.5,2.3,2.8,3.4,4.2c0.6,1.7,1,3.5,1,5.2c0,2.5,1.8,2.7,3.7,2.2
			c0.6,0.9,1.1,1.9,1.8,2.8c5.8,7.7,15.2,13,22.4,18.6c0.6,0.4,1.1,0.9,1.7,1.4c-0.9,2.9-1.8,5.9-2.6,8.9c0,0.5-0.2,1.1,0,1.5
			c0.6,0.9,2.1,0.9,3.1,0.3c1.1-0.6,1.8-1.5,2.4-2.5c0.7-1.2,1.4-2.5,2.1-3.7c2.5,2.2,5.1,4.1,7.8,4.9c9.8,2.9-1.7-9.9-3.3-11.8
			c-0.2-0.2-0.4-0.4-0.6-0.6c3.5-7,6.7-14.1,10-21c4.6-9.4,6.8-19.7,7.2-29.9C265,57.4,265,55.4,264.2,54z M171.2,71.4
			c-0.7,7-2.6,13.9-3.1,20.7c-0.2,2.4,1.5,13-2.4,13c-1.5,0-2.3-1.9-2.6-3.3c-5.2-23.6-4.2-47,1.1-71.3c0.4-1.6,0.7-3.3,1.3-4.9
			c0.2-0.7,0.6-1.5,1.1-2c1.1-1.3,3.5-0.5,4.6,1c0.9,1.7,1.1,3.7,1.3,5.5C173.2,43.9,172.6,57.7,171.2,71.4z M206,51.2
			c0.6-5.2,0.9-10,0.6-15c0-1.1-1.7-13.6-2.2-13.6c2.4,0,4.8,0.2,7,0.3c2.2,0.2,4.6,0.4,6.4,2.2c1.3,1.2,1.8,2.9,2,4.4
			c0.3,2.4-0.6,4.7-2.2,6.3c-0.2,0.1-0.2,0.4-0.4,0.5c-0.9,0.7-2,1.5-2.9,2.4c-0.9,1.2-1.5,2.7-2.2,3.9
			C210.3,45.5,206.9,47.6,206,51.2z"/>
	</g>
</g>
<g class="st0">
	<path class="st4" d="M473.6,38.4c0-4.4,0-9.1-1.5-13.1s-4.4-8-8.3-9.1c-2.9-0.7-5.8,0-8.7,0.7c-6.9,2.2-13.8,4.4-20.7,7.6
		c-8,3.6-9.8,1.5-4.7-6.9c6.9-12,13.1-24.3,18.5-37c1.8,0.4,2.2,3.3,2.2,5.4c-0.4,4.7,0,9.8,1.1,14.5c0.4,1.8,1.1,4,1.5,5.8
		c0.4,0.4,0.4,1.1,0.7,1.1c0.4,0.4,0.7,0.4,1.1,0.4c7.6-1.8,8-18.9,8.7-24.7c1.1-11.2,1.1-22.1-0.4-33.4c0-1.8-0.4-4.4-1.8-5.8
		c-1.8-2.5-4.7-2.9-7.3-2.2s-4.7,2.2-6.9,4c-12.3,10.5-21.4,25-27.2,40.3c-1.8,4.4-3.3,8.7-5.1,13.1c-4.7,11.6-12,21.8-15.2,34.5
		c-1.8,7.6-6.9,22.9,1.5,28.3c0.7,0.7,1.8,1.1,3.3,1.1c14.5,1.8,22.5-13.1,34.8-18.5c1.8-1.1,4-1.5,5.8-1.1
		c8.3,2.9,0.4,36.6-1.1,43.5c-3.9,19.7-10.5,38.6-16.5,57.7c-4.6-6.6-9-13.3-13-20.3c-4.7-7.3-9.1-14.5-13.1-22.1
		c-4-6.9-8.3-13.8-12.3-20.7c-6.2-10.5-12-21.4-17.8-31.9c-1.1-2.2-2.2-4-3.6-5.4c2.9-5.1,5.4-9.8,8.7-14.1
		c7.6-10.5,15.6-21.4,22.9-32.7c3.3-5.1,6.9-10.5,9.4-16c1.1-2.9,2.2-5.8,2.9-8.7c1.8-7.3,0.4-15.2-2.9-21.4
		c-0.4-1.1-1.1-1.8-1.5-2.5c-12.3-18.1-34.5-10.5-50.8-6.2c-14.2,3.6-28.3,7.6-40.6,16c-0.2,0.1-0.4,0.2-0.6,0.3
		C311-51.6,303.9-59.6,291.7-60c-1.1,0-2.2,0-3.3,0c-10.9-3.3-23.6,0.7-32.3,8c-6.2,5.4-9.1,14.1-10.5,22.5
		c-1.8,10.5-2.9,21.4-2.9,31.9s1.8,21,1.8,31.6c0,11.6,0,23.2,0.4,34.5c1.1,21.8,2.9,43.9,7.6,65.3c0.8,4.2,2,8.3,3.9,12.1
		c0,3.1-1.1,7.3-0.8,9.3c0.3,1.8,0.5,3.7,1.2,5.4c1,2.6,3.3,4.3,6.1,4.1c0.6,0,1.2-0.3,1.8-0.5c1.2-0.3,2.2-0.9,3.1-1.6
		c1.2-1,2.4-2,3.7-3c0.3-0.2,0.5-0.4,0.8-0.5c1.3,0.2,2.6,0.2,3.8,0.1c0.6,0.3,1.1,0.8,1.6,1.3c1.2,1.5,1.5,3.5,1.7,5.3
		c0.3,2.1,0.2,4.3,0.3,6.4c0.1,2.5-0.2,5,0.3,7.4c0.3,1.3,0.1,2.8,0.1,4.2c0,1.9-0.1,3.8-0.1,5.7c0,0.2,0,0.3,0.1,0.5
		c0.4,1,0.4,1.9,0.1,3c-0.1,0.2,0,0.5,0,0.8c0,0.5,0.1,1,0,1.6c-0.2,2.9-0.1,5.7-0.7,8.6c-0.1,0.3,0,0.5-0.1,0.8
		c-0.3,2.4-0.5,4.8-0.8,7.3c0,0.2-0.1,0.3-0.1,0.5c-0.1,1.1-0.4,2.2-0.4,3.3c-0.1,1.9,0,3.8,0,5.8c-0.1,1.7,0.8,2.9,1.9,4
		c0.9,0.8,2,1.4,3.2,1.2c1-0.1,2-0.5,2.8-1.3c1-1,1.6-2.1,2-3.5c0.4-1.6,0.5-3.2,0.3-4.9c-0.4-2.7-1-5.3-1.1-8.1
		c0-0.2,0-0.3-0.1-0.5c-0.2-1.9-0.4-3.8-0.5-5.6c-0.1-1.3-0.2-2.7-0.2-4c-0.1-1.5-0.2-3-0.2-4.5c0-1,0.1-2-0.2-3
		c-0.1-0.2,0-0.5,0-0.7c0.3-1.4,0.4-2.8,0.1-4.2c-0.1-0.5-0.2-1.1,0-1.5c0.4-0.9,0.2-1.7,0.3-2.6c0.1-1.2,0.2-2.4,0-3.6
		c-0.1-0.3,0.1-0.7,0.1-1.1c0-0.3,0.1-0.5,0.1-0.8c0-1,0-2.1,0.1-3.1c0.1-2.3,0.3-4.6,0.5-6.9c0.2-1.8,0.5-3.6,0.7-5.4
		c0-0.1,0.1-0.2,0.1-0.3c0.3-1.4,0.6-2.7,1-4.1c0.3-1.2,0.5-2.3,0.9-3.4c0.4-1.2,0.9-2.4,1.3-3.6c1.1-1.5,2.1-3,3-4.7
		c0.1-0.1,0.1-0.1,0.2-0.2h-0.1c1.5-2.9,2.7-6,3.6-9.2c2.5-9.4,5.1-18.9,7.6-28.3C316,69.7,322.9,28,320.4-11.6
		c-0.6-7.8-1.6-16.6-3.9-24.5c5,0.5,24.4,0.4,24.7-0.9c-0.7,6.5-2.9,12.7-3.3,19.2c-0.2,9-0.9,17.7-2.3,26.8
		c-2.2,17.4-3.3,34.8-3.3,52.6c0,9.1,0,18.5,0.4,27.9c0.7,21.4,0.4,41.4,6.2,62.4c0.4,1.5,0.7,2.9,1.8,4.4c1.1,1.1,2.5,1.8,4,1.5
		c1.5-0.7,2.2-2.5,2.5-4c3.6-10.5,4.7-21.4,4.7-32.7c0.4-9.8,1.8-18.9,2.2-28.7c0.4-4.7,0.7-9.4,0.7-14.1c2.3,3.2,4.6,6.2,6.7,9.3
		c1.1,3.8,2,7.8,2,11.4c0,5.4,3.6,6.2,7.3,5.6c1.1,2.2,2.2,4.5,3.5,6.7c10.9,19.2,29.8,34.5,44.3,50.4c0.9,1,1.8,2,2.7,3.1
		c-1.7,6.3-3.2,12.6-4.4,19c0,1.1-0.4,2.5,0,3.6c1.1,2.5,4,3.3,6.2,2.5c2.2-1.1,3.6-2.9,4.7-5.1c1.5-2.3,3-4.6,4.4-6.9
		c4.8,5.6,9.8,10.9,15,14.2c19.6,11.6-3.3-24.3-6.5-28.7c-0.1-0.2-0.3-0.4-0.4-0.6c7.7-16.4,13.4-34,19.1-51.3
		C467.4,87.7,473.6,63.8,473.6,38.4z M288.7,63c-1.5,13.8-5.1,27.6-6.2,41c-0.4,4.7,2.9,25.8-4.7,25.8c-2.9,0-4.4-3.6-5.1-6.5
		c-10.9-45-9.4-96.1,2.2-140.8c0.7-3.3,1.5-6.5,2.5-9.8c0.4-1.5,1.1-2.9,2.2-4c2.2-2.5,6.9-1.1,9.1,1.8c1.8,3.3,2.2,7.3,2.5,10.9
		C292.6,8.6,291.6,36.2,288.7,63z M357.3,22.4c1.1-11.2,1.8-22.1,1.1-33.4c0-2.5-3.3-29.8-4.4-29.4c4.7-1.1,9.4-1.8,13.8-2.9
		c4.4-0.7,9.1-1.8,12.7,1.5c2.5,2.2,3.6,5.8,4,9.4c0.7,5.8-1.1,12-4.4,16.7c-0.4,0.4-0.4,1.1-0.7,1.5c-1.8,2.2-4,4.4-5.8,6.9
		c-1.8,3.3-2.9,6.9-4.4,9.8C365.7,9.4,359.1,14.4,357.3,22.4z M263.3-60.3c1.5-0.7,17.1-9.1,12-12.3c0,0,0,0-0.4,0
		c-2.2-1.1-7.6-0.4-9.8,0c-4.7,1.1-9.8,3.6-14.5,4.7c-9.4,2.9-18.9,5.1-28.3,7.6c-10.2,3.3-20.3,6.5-30.1,10.9
		c-1.7,0.6-3.3,1.3-4.9,2.1c-0.4-0.8-0.9-1.5-1.3-2.1c-12.3-17.8-34.5-10.5-50.8-6.2C121-52,106.9-48,94.6-39.6
		c-0.7,0.4-1.5,1.1-1.8,1.8c-0.4,1.5,0.7,2.9,1.8,3.3c2.2,1.1,25.4,0.7,25.8-0.7c-0.7,6.5-2.9,12.7-3.3,19.2
		c-0.4,9.1-1.1,18.1-2.5,26.8c-1,7.8-1.7,15.5-2.2,23.2c-3.7,1.4-7.1,3-11.2,3.7c-1.5,0.4-2.9,0.4-4,0.4c0.4-5.4-0.7-11.2-1.1-16.7
		c-0.7-12-2.2-23.6-2.9-35.6C92.7-20,92.4-25.8,91.7-32c-0.7-6.5-0.4-16-6.2-20.7c-2.5-2.2-6.5-2.9-8.7-0.7
		c-1.1,0.7-1.8,2.2-2.5,3.3c-2.2,3.6-4,7.6-6.2,11.2c-1.1,1.8-2.2,3.6-2.5,5.4c-0.7,2.2-1.1,4.4-1.5,6.5c-1.1,7.6-3.3,15.2-5.4,22.9
		c-1.8,6.2-2.5,12.7-3.3,18.9c-1.8,3.6-2.9,7.3-4,10.9c-2.2,8-2.9,15.6-4,23.6C46.3,55.8,47,62.4,42,67.4c-1.8,2.2-4.7,3.6-6.9,5.1
		c-2.5,1.6-4.9,3.4-7.1,5.2c-1.9-3.8-3.3-7.8-5.3-12c-4.2-9.5-9.2-17.6-9.9-27.9c2.6-4.2,5.2-8.5,7.3-13c6.4-8.9,13-18,19-27.4
		c3.3-5.1,6.9-10.5,9.4-16c0.4-1.1,0.8-2.2,1.2-3.4c7-9.6,18.5-23.6,15.2-35.2c-0.4-1.8-1.1-3.2-2.1-4.2c-8.1-9.9-29.3-5.3-39.9-3.9
		C6.7-62.7-8.8-58.5-23.6-52.5c-1.6,0.7-3.2,1.6-4.6,2.6c-5.6,2.2-11.1,5-16.2,8.4c-0.7,0.4-1.5,0.7-1.8,1.8s0.7,2.9,1.8,3.3
		c1.3,0.4,9.7,0.6,16.6,0.4c0.8,3.6,0.5,7.6,0.3,11.3c-1.1,17.3-2.1,34.6-1.8,52.2c0.7,31.9-8.7,64.4,3.3,95.6
		c0.8,9.5,2.1,19,4.8,28.7c0.4,1.5,0.7,2.9,1.8,4.4c1.1,1.1,2.5,1.8,4,1.5c1.5-0.7,2.2-2.5,2.5-4c3.6-10.5,4.7-21.4,4.7-32.7
		c0.4-9.8,1.8-18.9,2.2-28.7c0.4-4.7,0.7-9.4,0.7-14.1l1.1-3c1.7,2.3,3.6,4.4,5.2,6.3c3.5,3.9,6.4,8.1,9.2,12.7
		c0.1,0.1,0.2,0.2,0.2,0.4c-0.8,1.1-1.4,2.3-1.5,3.6c1.1,0.7,2.3,0.1,3.4-0.7c2.1,3.4,4.2,7,6.4,10.2c6,9.1,12.2,18,18.6,26.7
		c-1.1,5.5-2.3,11-3.4,16.4c-0.7,3.6,4,4.4,5.1,1.1c1.2-3.5,2.3-7,3.4-10.5c5.4,7.3,10.9,14.5,16.5,21.6c2.5,3.2,4.9,6,7.4,8.8
		c3.5,4.6,7.4,8.8,10.9,13.1c3.2,3.6,7.6,8.7,12.3,14.2c0.7,4.6,1.5,9.2,2,13.7c0.7,6.2,1.1,11.6,3.3,17.1c1.8,4,8.7,5.8,10.9,0.7
		c1.2-2.9,2.1-6,2.7-9.2c2.8,3.3,5.3,6.2,7.4,8.6c0.7,1.1,1.8,1.8,2.8,2.5c1.4,0.4,2.8,0.4,3.5-0.7c1.4-1.8-0.4-3.9-1.8-5.6
		c-2.1-2.1-3.9-4.2-5.6-6.7c-1.8-2.8-13.2-19-14.9-21.5c-1.4-2.5-3.5-4.9-5.6-7.4c-18.2-22.4-30.1-49.3-43.8-75
		c1.2-3.8,2.5-7.5,3.9-11.2c2.5-8,5.8-15.6,8-23.6c1.1-2.9,1.8-5.8,2.2-8.7c0.7-0.4,1.1-0.4,1.5-0.4c1.8-0.4,3.4-1,5-1.7
		c0.1,0.3,0.2,0.6,0.3,1c0.2,2-0.3,3.9-0.6,5.8c0,0.1-0.1,0.1-0.1,0.2c-0.2,1.3-0.5,2.5-0.7,3.8c0,0.3,0,0.6,0,0.9
		c0.2,1,0.5,1.9,1.5,2.4c1.4,0.7,3.3-0.3,3.4-1.8c0.3-2.1,0.1-4.2-0.3-6.2c-0.2-0.9-0.5-1.9-0.5-2.9c-0.1-1.6-0.2-3.2,0-4.7
		c1.5-0.8,3-1.6,4.7-2.4c1.1-0.4,2.2-1.1,3.3-1.5c1.1,8.7,2.5,17.4,4,26.1c1.8,11.6,0.4,23.6,0.7,35.6c0.4,11.2,0.7,22.1,1.1,33.4
		c0.1,4.6,0.2,9.3,0.4,14c4.2,5.1,14.3,17.3,22,27.4c0-1.6,0.1-3.2,0.1-4.8c0.4-12-1.1-23.9-2.5-35.6c-1.1-12-2.5-23.6-4.4-35.6
		c-1.5-11.2-5.1-22.5-5.4-34.1c-0.7-11.2-0.4-22.5-1.5-33.7c0.7-0.7,1.8-1.5,2.9-2.2c3.9-2.7,8.4-5.5,12.3-8.6
		c-0.2,5.5-0.3,11-0.3,16.6c0,9.4,0,18.5,0.4,27.9c0.4,9.8,1.8,19.2,1.5,28.7c0,9.4,0,18.5,0,27.6c-0.4,5.1-0.4,9.8-0.4,14.9
		c0.4,2.9,1.5,22.9,8,19.6c1.8-1.1,2.2-3.6,2.5-5.8c5.8-36.6,10.2-72.9,11.2-109.6c8-11.2,12.7-23.9,20.7-34.8
		C159,26.5,163,21,167,15.4c0.5,1.9,0.9,3.8,1.3,5.8c0.3,1.4,0.3,2.8,0.5,4.3c0.2,2.3,0.5,4.5,0.7,6.8c0.2,1.9,0.5,3.8,0.5,5.7
		c0.1,8,0.3,16.1,0.3,24.1c-0.1,8.5,0.5,17-1,25.4c-0.5,2.7-0.7,5.5-1.2,8.2c-0.3,1.9,0.1,3.5,1.5,4.8c1.1,1,2.3,1.5,3.8,1
		c0.4-0.1,0.8-0.3,1.1-0.4c1-0.5,1.7-1.2,1.9-2.3c0.2-0.9,0.3-1.8,0.2-2.7c-0.1-2.5-0.4-5-0.8-7.5c-0.6-3.2-1.3-6.4-1-9.8
		c0.1-1.7,0-3.4,0-5c0-14.5,0-29,0.1-43.6c0-3.7,0.6-7.4,0.9-11.1c0-0.2,0.1-0.3,0.1-0.5c0.4-2.6,0.8-5.2,1.2-7.8
		c0.4-2.8,0.6-5.6,0.9-8.5c0.2-1.5,0.4-2.9,0.8-4.3c3-4.7,6.3-9.7,8.6-14.7c1.1-2.9,2.2-5.8,2.9-8.7c0.2-1,0.4-1.9,0.5-2.9
		c4.4-1.5,8.8-3.1,13.2-4.7c1.1,17.8,1.8,35.6,2.9,53.3c2.5,32.7,1.1,72.9,2.2,105.6c0.4,13.4,1.1,26.8,4.4,39.9
		c0.7,2.9,2.2,6.2,5.1,6.2c2.9,0,4.4-4,4.7-7.3c0.4-5.1,1.1-9.4,0-14.1c-1.1-6.2-2.5-11.6-2.2-17.8c0.4-4.4,1.8-8.7,2.5-13.4
		c1.1-6.2,1.1-20.3,1.1-26.5c0.4-6.9,0.4-13.8,0.4-20.7c0.4-19.2,0.7-38.5,1.1-58c0.4-18.9,2.9-37,2.2-55.9
		C240.4-46.9,252-53.4,263.3-60.3z M-1.7,18.8c3.1-17.3-0.4-34.3,1-51.2c0.4-1.8,0.4-3.9,1.8-5.3c1.1-1.1,2.5-1.8,3.9-2.1
		c6.7-2.5,13.4-4.6,19.8-7.1c7.8-2.8,16.9-1.1,14.1,9.5c-1.4,4.2-4.6,7.8-7.1,11.3c-2.1,2.5-3.9,4.9-5.6,7.8
		c-3.6,5.7-7.1,11.3-11,16.6C10.6,4.6-0.3,10.6-1.7,18.8z M42.7,100.4c0,0.3-0.1,0.7-0.1,1c-2.5-4.6-5.4-9.1-8.4-13.7
		c3.1-1.5,6-3.3,8.9-5.1c0-0.4,0.4-0.4,0.4-0.4C43,88.4,43,94.6,42.7,100.4z M77.5,41.3c0,0-5.4,3.6-6.2,4c-1.1,1.1-1.8,1.1-2.2,1.1
		c-0.4-0.4-0.4-1.5-0.4-2.9c1.1-5.1,2.2-9.8,2.2-14.9c0-2.5-0.7-5.1-0.4-7.3c0-1.8,0.4-3.6,0.4-5.4c1.5-8,3.3-15.6,5.1-23.2
		c1.5,8.3,0,17.1,0,25.8c-0.4,4,0.4,8,0.4,12c-0.4,3.6,0,6.9,1.1,10.2C77.5,40.9,77.5,41.3,77.5,41.3z M159.1-13.9
		c-0.4,0.4-0.4,1.1-0.7,1.5c-1.8,2.2-4,4.4-5.8,7.3s-2.9,6.5-4.4,9.8c-3.6,6.9-10.2,11.6-12,19.6c1.1-10.9,1.8-22.1,1.1-33
		c0-2.5-3.3-30.1-4.4-29.8c4.7-1.1,9.4-1.8,13.8-2.9c4.4-0.7,9.1-1.8,12.7,1.5c2.5,2.2,3.6,5.8,4,9.4
		C164.2-24.8,162.4-18.6,159.1-13.9z"/>
</g>
<g class="st0">
	<path class="st4" d="M266.7,62.4c0-2,0-4.5-0.7-6.2s-2.2-3.3-4.3-3.7c-1.5-0.3-3,0-4.5,0.3c-3.5,0.8-7.1,1.7-10.6,3.1
		c-4,1.6-4.9,0.5-2.4-2.9c3.6-4.8,6.7-9.2,9.5-13.4c0.9,0.2,1.1,1.2,1.1,2c-0.2,1.7,0,3.8,0.5,5.3c0.2,0.6,0.6,1.4,0.7,2
		c0.2,0.1,0.2,0.4,0.4,0.4c0.2,0.1,0.4,0.1,0.6,0.1c3.9-0.6,4.1-6.7,4.5-8.6c0.6-3.7,0.6-7.2-0.2-11.6c0-0.7-0.2-1.7-0.9-2.4
		c-0.9-1.1-2.4-1.4-3.7-1.2c-1.3,0.2-2.4,0.7-3.5,1.3c-6.3,3.6-10.9,8.2-13.9,13.6c-0.9,1.6-1.7,3.3-2.6,5
		c-2.4,4.6-6.2,8.5-7.8,14.7c-0.9,3.7-3.5,10.9,0.8,13.2c0.4,0.3,0.9,0.4,1.7,0.4c7.4,0.5,11.5-6.1,17.8-8.5c0.9-0.5,2-0.7,3-0.5
		c4.3,1.3,0.2,15.2-0.5,18c-2.5,9.4-5.9,18.4-8.4,27.8c-2.3-3.6-4.6-7-6.7-10.1c-2.4-3.2-4.6-6.2-6.7-9.4c-2-2.9-4.3-5.7-6.3-8.6
		c-3.1-4.5-6.1-9.3-9.1-14.3c-0.6-1-1.1-1.9-1.9-2.6c1.5-2.5,2.8-4.9,4.4-7.1c3.9-5.3,8-9.6,11.7-14.2c1.7-2.1,3.5-4.1,4.8-6.1
		c0.6-1.1,1.1-2.1,1.5-3.2c0.9-2.7,0.2-5.9-1.5-8.8c-0.2-0.5-0.6-0.9-0.7-1.2c-6-8.5-16.8-8.8-25.9-7.9c-7,0.6-14.6,1.4-20.9,5.2
		c-0.1,0-0.2,0.1-0.3,0.2c-2.1-5.4-5.8-9.7-12-10c-0.6,0-1.1,0-1.7,0c-5.6-1.8-12.2-0.1-16.6,3.5c-3.2,2.6-4.7,7.2-5.4,11.5
		c-0.9,5.5-1.5,11.2-1.5,16.7s0.9,11.1,0.9,16.5c0,5.9-0.1,12,0.2,17.6c0.5,11.2,1.8,22.3,3.9,33.4c0.4,2.1,1,4.3,2,6.2
		c0,1.6-0.6,3.7-0.4,4.8c0.1,0.9,0.3,1.9,0.6,2.8c0.5,1.3,1.7,2.2,3.1,2.1c0.3,0,0.6-0.2,0.9-0.2c0.6-0.1,1.1-0.5,1.6-0.8
		c0.6-0.5,1.2-1,1.9-1.5c0.1-0.1,0.3-0.2,0.4-0.3c0.7,0.1,1.3,0.1,2,0.1c0.3,0.2,0.6,0.4,0.8,0.7c0.6,0.8,0.8,1.8,0.9,2.7
		c0.2,1.1,0.1,2.2,0.2,3.3c0.1,1.3-0.1,2.5,0.2,3.8c0.1,0.7,0.1,1.4,0.1,2.1c0,1,0,2,0,2.9c0,0.1,0,0.2,0,0.2c0.2,0.5,0.2,1,0,1.5
		c0,0.1,0,0.3,0,0.4c0,0.3,0,0.5,0,0.8c-0.1,1.5,0,2.9-0.4,4.4c0,0.1,0,0.3,0,0.4c-0.1,1.2-0.3,2.5-0.4,3.7c0,0.1,0,0.2,0,0.2
		c-0.1,0.6-0.2,1.1-0.2,1.7c0,1,0,2,0,3c0,0.9,0.4,1.5,1,2c0.5,0.4,1,0.7,1.7,0.6c0.5-0.1,1-0.3,1.4-0.7c0.5-0.5,0.8-1.1,1-1.8
		c0.2-0.8,0.3-1.7,0.2-2.5c-0.2-1.4-0.5-2.7-0.5-4.1c0-0.1,0-0.2,0-0.2c-0.1-1-0.2-1.9-0.3-2.9c-0.1-0.7-0.1-1.4-0.1-2.1
		c0-0.8-0.1-1.5-0.1-2.3c0-0.5,0-1-0.1-1.5c0-0.1,0-0.3,0-0.4c0.2-0.7,0.2-1.4,0.1-2.1c0-0.3-0.1-0.6,0-0.8c0.2-0.4,0.1-0.9,0.2-1.3
		c0-0.6,0.1-1.2,0-1.9c0-0.2,0-0.4,0.1-0.6c0-0.1,0-0.3,0-0.4c0-0.5,0-1.1,0-1.6c0.1-1.2,0.1-2.4,0.2-3.6c0.1-0.9,0.2-1.9,0.4-2.8
		v-0.1c0.2-0.7,0.3-1.4,0.5-2.1c0.1-0.6,0.3-1.2,0.4-1.8c0.2-0.6,0.4-1.2,0.7-1.8c0.6-0.7,1.1-1.6,1.5-2.4l0.1-0.1l0,0
		c0.8-1.5,1.4-3.1,1.9-4.7c1.3-4.8,2.7-9.7,3.9-14.5c5.2-20.2,8.5-40.4,7.7-60.8c-0.2-3.8-0.8-8.3-2-12.4c2.6,0.4,12.6,1.4,12.8,0.8
		c-0.4,3.1-1.6,6-1.7,9.1c-0.2,4.3-0.6,8.6-1.4,13.1c-1.2,8.5-1.7,17.7-1.7,26.6c0,4.5,0.1,9.3,0.2,13.9c0.2,10.1,0.6,21.7,3.2,31.6
		c0.2,0.7,0.4,1.5,0.9,2.2c0.6,0.5,1.3,0.8,2,0.6c0.7-0.4,1.1-1.4,1.3-2.2c1.9-5.8,2.4-11.6,2.4-17.3c0.2-5,0.9-9.5,1.1-14.2
		c0.2-2.3,0.4-4.6,0.4-6.8c1.2,1.4,2.4,2.8,3.5,4.2c0.6,1.7,1,3.6,1,5.3c0,2.6,1.9,2.8,3.8,2.3c0.6,1,1.1,2,1.8,3
		c6.3,8.7,15.5,16.3,22.6,24.3c0.5,0.5,0.9,1.1,1.4,1.7c-0.9,3.8-1.6,7.6-2.3,11.5c0,0.6-0.2,1.5,0,2.2c0.6,1.5,2,1.9,3.2,1.4
		c1.1-0.7,1.9-1.8,2.4-3.2c0.8-1.4,1.5-2.8,2.3-4.3c2.4,3.3,5,6.5,7.7,8.4c9.8,7-1.7-14.9-3.3-17.4c-0.1-0.1-0.2-0.2-0.2-0.4
		c3.5-9.4,6-19.5,9.8-28.5C263.1,83.7,266.8,72.2,266.7,62.4z M172,75.2c-0.8,7-2.6,14.1-3.2,21c-0.2,2.4,1.5,13.2-2.4,13.2
		c-1.5,0-2.3-1.9-2.6-3.3c-5.3-23.9-4.2-47.6,1.1-72.2c0.4-1.7,0.7-3.3,1.3-5c0.2-0.7,0.6-1.5,1.1-2c1.1-1.3,3.5-0.5,4.6,1
		c0.9,1.7,1.1,3.7,1.3,5.6C174,47.4,173.5,61.4,172,75.2z M207.2,54.6c0.6-5.5,1-10.5,0.6-15.7c0-1.2-1.6-14-2.2-13.9
		c2.4-0.2,4.8-0.1,7-0.2c2.2,0,4.6,0,6.5,1.8c1.3,1.2,1.8,2.9,2,4.4c0.3,2.5-0.6,5-2.3,6.9c-0.2,0.1-0.2,0.5-0.4,0.6
		c-0.9,0.9-2,1.7-3,2.8c-0.9,1.4-1.5,3.1-2.2,4.3C211.5,48.4,208.1,50.7,207.2,54.6z M159,11.6c0.7-0.3,8.7-4.3,6.1-6.1
		c0,0,0,0-0.2,0c-1.1-0.6-3.9-0.4-5-0.2c-2.4,0.4-5,1.6-7.5,2c-4.8,1.2-9.7,2.1-14.5,3.2c-5.2,1.5-10.4,3-15.5,5.3
		c-0.8,0.3-1.7,0.7-2.5,1.1c-0.2-0.5-0.5-0.8-0.6-1.1c-6.3-9.1-17.9-5.3-25.9-1.8c-6.9,2.9-15.3,6.5-21.4,11.4
		c-0.4,0.2-0.7,0.6-0.9,1c-0.2,0.7,0.4,1.3,0.9,1.4c1.1,0.4,13.3-1.5,13.5-2.3c-0.4,3.3-1.5,6.6-1.7,9.8c-0.2,4.5-0.5,9.1-1.2,13.4
		c-0.4,3.9-0.7,7.7-1,11.7c-1.9,0.7-3.7,1.6-5.7,1.9c-0.7,0.2-1.5,0.2-2,0.2c0.2-2.8-0.4-5.8-0.6-8.4c-0.5-5.8-1.3-11.2-1.8-16.8
		c-0.2-2.7-0.5-5.4-0.9-8.2c-0.4-3-0.4-7.5-3.2-9.2c-1.2-0.8-3.1-0.8-4.1,0.4c-0.5,0.4-0.8,1.2-1.2,1.7c-1,1.8-2,3.8-3.2,5.6
		c-0.6,0.9-1.2,1.8-1.4,2.6c-0.4,1-0.6,2-0.8,2.9c-0.6,3.3-1.7,6.7-2.8,10.1c-0.9,2.7-1.2,5.5-1.5,8.2c-0.9,1.6-1.5,3.2-1.9,4.9
		c-1.1,3.6-1.4,7.8-2,11.5c-0.5,3.1-0.2,6.1-2.8,8.3c-0.9,0.9-2.4,1.5-3.5,2.1c-1.3,0.6-2.5,1.3-3.7,2.1c-1-1.7-1.7-3.5-2.7-5.4
		c-2.2-4.2-4.7-7.8-5-12.8c1.3-2,2.7-4.2,3.7-6.2c3.2-3.9,6.4-7.4,9.4-11.4c1.6-2.2,3.4-4.6,4.7-6.9c0.2-0.5,0.4-1,0.6-1.4
		c3.6-4.3,10-11.4,8-16.4C57,19,56.6,18.4,56,18.1c-4.9-3.8-16,0.4-21,1.9c-7.8,2.3-15,5.1-22.5,7.9c-0.8,0.3-1.6,0.7-2.4,1.2
		c-2.9,1-5.8,2.1-8.6,3.4c-0.4,0.1-0.8,0.3-1,0.7s0.4,1,1,1.1c0.7,0.1,5.2,0.1,8.7-0.1c0.4,1.3,0.2,2.6,0.1,3.9
		C9.7,44,9.2,49.5,9.2,57.3c0,13.5-3.7,27.5,1.7,40.7c0.4,4.5,1.2,10.1,2.5,16.2c0.2,0.9,0.4,1.9,0.9,2.8c0.6,0.7,1.3,1.2,2,1
		c0.7-0.4,1.1-1.4,1.3-2.3c1.9-6.4,2.4-12.6,2.4-17.9c0.2-4.6,0.9-8.3,1.1-12.3c0.2-1.9,0.4-3.8,0.4-5.7c0.2-0.5,0.3-0.7,0.6-1.2
		c0.9,1,1.8,1.9,2.6,2.7c1.8,1.7,3.2,3.6,4.7,5.7c0,0.1,0.1,0.1,0.1,0.2c-0.4,0.5-0.7,0.9-0.8,1.5c0.6,0.3,1.2,0.1,1.7-0.1
		c1.1,1.6,2.2,3.3,3.3,4.8c3.1,4.4,6.2,9.1,9.5,14.3c-0.6,2.9-1.2,5.9-1.7,8.9c-0.4,2,2,2.7,2.6,0.9c0.6-1.9,1.2-3.8,1.7-5.7
		c2.8,4.4,5.6,8.8,8.4,13c1.3,1.9,2.5,3.5,3.8,5.2c1.8,2.6,3.8,5.1,5.6,7.4c1.7,2,3.9,4.8,6.3,7.8c0.3,2.4,0.8,4.8,1.1,7.2
		c0.4,3.2,0.6,6,1.7,8.7c0.9,2,4.5,2.9,5.6,0.4c0.6-1.5,1.1-3,1.4-4.7c1.4,1.7,2.7,3.2,3.8,4.4c0.4,0.5,0.9,0.9,1.4,1.3
		c0.7,0.2,1.4,0.2,1.8-0.4c0.7-0.9-0.2-2-0.9-2.9c-1.1-1.1-2-2.1-2.9-3.4c-0.9-1.4-6.8-9.8-7.7-11.1c-0.7-1.3-1.9-2.6-2.9-3.9
		c-9-12.7-15.3-27.7-22.3-42c0.6-1.7,1.3-3.4,2-5.1c1.3-3.6,3-7,4.1-10.7c0.6-1.3,0.9-2.7,1.1-4c0.4-0.2,0.6-0.1,0.7-0.1
		c0.9-0.1,1.8-0.4,2.6-0.7c0.1,0.2,0.1,0.3,0.1,0.5c0.1,0.9-0.2,1.8-0.3,2.8v0.1c-0.1,0.6-0.2,1.2-0.3,1.8c0,0.1,0,0.3,0,0.5
		c0.1,0.5,0.2,0.9,0.8,1.2c0.7,0.4,1.7,0,1.8-0.7c0.1-1,0.1-2-0.2-3c-0.1-0.5-0.2-0.9-0.3-1.4c0-0.8-0.1-1.5,0-2.3
		c0.8-0.3,1.6-0.7,2.4-1.1c0.6-0.2,1.1-0.5,1.7-0.6c0.5,4.3,1.3,8.6,2,12.9c0.9,5.7,0.2,11.7,0.3,17.8c0.2,5.8,0.4,11.6,0.6,17.5
		c0.1,2.4,0.1,4.9,0.2,7.4c2.2,2.8,7.4,9.4,11.3,14.7c0-0.8,0-1.7,0.1-2.5c0.2-6.2-0.6-12.4-1.3-18.4c-0.6-6.2-1.4-12.3-2.3-18.5
		c-0.8-5.8-2.6-11.7-2.8-17.5c-0.4-5.6-0.2-11.2-0.7-16.9c0.4-0.4,0.9-0.7,1.5-1.1c2-1.3,4.3-2.7,6.3-4.3c-0.1,2.8-0.2,5.6-0.2,8.4
		c0,4.8,0,9.4,0.2,14.2c0.2,5,0.9,9.8,0.7,14.6c0,4.8,0,9.5,0,14.2c-0.2,2.6-0.2,5-0.2,7.7c0.2,1.5,0.8,11.8,4.1,10.1
		c0.9-0.6,1.1-1.9,1.3-3c2.9-18.5,4.9-37.2,5.8-56.1c4.1-5.8,6.5-12.3,10.6-17.8c2-2.7,4-5.7,6-8.7c0.3,1,0.5,2,0.7,3.1
		c0.1,0.8,0.2,1.5,0.3,2.3c0.1,1.2,0.2,2.4,0.3,3.6c0.1,1,0.2,2,0.3,2.9c0.1,4.1,0.2,8.2,0.1,12.3c0,4.3,0.3,8.7-0.5,13
		c-0.2,1.4-0.4,2.8-0.6,4.2c-0.2,1,0.1,1.8,0.8,2.5c0.5,0.5,1.2,0.8,2,0.5c0.2-0.1,0.4-0.1,0.6-0.2c0.5-0.2,0.9-0.6,1-1.2
		c0.1-0.5,0.1-0.9,0.1-1.4c0-1.3-0.2-2.6-0.4-3.8c-0.3-1.6-0.6-3.3-0.5-5c0.1-0.9,0-1.7,0-2.6c0-7.4,0-14.9,0.1-22.3
		c0-1.9,0.3-3.9,0.4-5.9c0-0.1,0-0.2,0-0.3c0.2-1.4,0.4-2.8,0.6-4.2c0.2-1.5,0.3-3,0.4-4.5c0.1-0.8,0.2-1.6,0.4-2.3
		c1.6-2.5,3.2-5.2,4.4-7.9c0.6-1.6,1.1-3.1,1.5-4.7c0.1-0.5,0.2-1,0.3-1.6c2.3-0.8,4.5-1.6,6.8-2.4c0.6,9.5,1,19,1.6,28.5
		c1.1,18,0.6,36.2,1.1,54.3c0.2,6.9,0.6,13.7,2.2,20.4c0.4,1.5,1.1,3.2,2.6,3.2s2.2-2,2.4-3.7c0.2-2.6,0.6-4.8,0-7.2
		c-0.6-3.2-1.3-6-1.1-9.1c0.2-2.2,0.9-4.5,1.3-6.9c0.5-3.1,0.6-10.4,0.6-13.6c0.2-3.5,0.2-7.1,0.2-10.6c0.1-9.9,0.3-20.1,0.5-30
		c0.3-9.7,1.3-19.7,1.1-29.5C147.3,18,153.2,14.9,159,11.6z M23.3,53.5c0,0-0.2-12.7,0.4-18.9c0.2-0.6,0.2-1.4,0.8-2
		c0.5-0.4,1.2-0.8,1.9-1c3.2-1.2,6.5-2.5,9.6-3.9c3.7-1.7,8.5-1.6,7.2,2.9c-0.7,1.8-2.2,3.4-3.4,4.9c-1,1.1-1.9,2.1-2.7,3.2
		c-1.7,2.3-3.4,4.6-5.3,6.7C29.5,48.1,23.3,53.5,23.3,53.5z M46,91.1c0,0.2,0,0.3,0,0.5c-1.3-2.2-2.8-4.5-4.3-6.6
		c1.6-0.5,3.1-1.2,4.6-1.9c0-0.2,0.2-0.1,0.2-0.1C46.2,85.7,46.2,88.5,46,91.1z M63.9,64.1c0,0-2.8,1.8-3.2,2
		c-0.6,0.5-0.9,0.5-1.1,0.5c-0.2-0.2-0.2-0.7-0.2-1.4c0.6-2.5,1.1-5.1,1.1-7.5c0-1.2-0.4-2.4-0.2-3.4c0-0.8,0.2-1.7,0.2-2.5
		c0.8-3.7,1.6-7.1,2.5-10.6c0.7,3.7,0,7.6,0,11.7c-0.2,1.9,0.2,3.7,0.2,5.7c-0.2,1.9,0,3.5,0.5,5.2C63.9,63.9,63.9,64.1,63.9,64.1z
		 M105.6,35c-0.2,0.2-0.2,0.6-0.4,0.8c-0.9,1.2-2,2.4-3,3.9c-0.9,1.6-1.5,3.5-2.2,5.2c-1.8,3.7-5.2,6.2-6.1,10.4
		c0.5-5.7,0.9-11.5,0.5-17.2c0-1.3-1.7-15.5-2.2-15.3c2.4-0.8,4.8-1.4,7-2.2c2.2-0.6,4.6-1.2,6.5,0.4c1.3,1.1,1.8,3,2.1,4.9
		C108.1,29.1,107.3,32.4,105.6,35z"/>
</g>
</svg>
